<?xml version="1.0" encoding="UTF-8"?>
<svg xmlns="http://www.w3.org/2000/svg" xmlns:xlink="http://www.w3.org/1999/xlink" width="87pt" height="98pt" viewBox="0 0 87 98" version="1.1">
<g id="surface147">
<path style=" stroke:none;fill-rule:evenodd;fill:rgb(5.882263%,40.783691%,0%);fill-opacity:1;" d="M 13.890625 57.066406 C 10.773438 52.390625 11.550781 41.316406 16.699219 42.40625 C 21.847656 43.5 15.949219 52.699219 21.003906 56.597656 C 26.058594 60.5 29.957031 59.5625 29.957031 59.5625 C 29.957031 59.5625 34.167969 46.621094 34.480469 38.195312 C 34.613281 34.5625 34.628906 32.089844 34.609375 30.453125 C 29.269531 30.082031 25.050781 25.644531 25.050781 20.210938 C 25.050781 14.535156 29.65625 9.929688 35.335938 9.929688 C 41.011719 9.929688 45.613281 14.535156 45.613281 20.210938 C 45.613281 25.164062 42.109375 29.296875 37.445312 30.269531 L 37.445312 47.085938 C 37.445312 47.085938 42.277344 45.527344 49.609375 45.214844 C 56.9375 44.902344 61.617188 46.464844 61.617188 46.464844 C 61.617188 46.464844 62.632812 28.613281 61.722656 25.253906 C 56.121094 24.265625 51.863281 19.386719 51.863281 13.5 C 51.863281 6.898438 57.214844 1.550781 63.8125 1.550781 C 70.410156 1.550781 75.761719 6.898438 75.761719 13.5 C 75.761719 19.734375 70.988281 24.84375 64.898438 25.394531 C 64.980469 30.386719 66.34375 42.414062 67.855469 47.554688 C 67.855469 47.554688 72.332031 53.007812 74.460938 60.460938 C 76.773438 59.636719 80.164062 58.109375 81.519531 55.925781 C 83.65625 52.472656 82.011719 45.894531 77.488281 41.453125 C 72.964844 37.015625 76.585938 33.066406 81.351562 37.179688 C 86.121094 41.289062 88.226562 53.457031 82.980469 58.390625 C 79.929688 61.257812 76.996094 62.453125 75.0625 62.957031 C 75.164062 63.457031 75.25 63.960938 75.324219 64.476562 C 76.636719 73.902344 79.488281 92.320312 71.15625 94.734375 C 62.824219 97.144531 62.386719 91.445312 58.003906 93.199219 C 53.617188 94.949219 53.835938 97.109375 50.546875 95.589844 C 47.257812 94.074219 45.503906 91.882812 42.652344 94.074219 C 39.804688 96.265625 35.636719 97.257812 32.785156 96.105469 C 29.9375 94.949219 27.523438 92.757812 24.453125 93.636719 C 21.386719 94.511719 21.097656 96.28125 19.851562 96.589844 C 16.40625 97.449219 15.414062 97.328125 14.671875 95.589844 C 13.933594 93.855469 17.324219 91.070312 20.753906 89.507812 C 24.183594 87.949219 25.433594 79.058594 26.527344 74.222656 C 27.617188 69.390625 29.957031 61.902344 29.957031 61.902344 C 29.957031 61.902344 17.011719 61.75 13.890625 57.066406 Z M 13.890625 57.066406 "/>
<path style=" stroke:none;fill-rule:evenodd;fill:rgb(99.998474%,99.998474%,99.998474%);fill-opacity:1;" d="M 56.109375 12.019531 C 61.289062 12.035156 66.460938 12.222656 71.636719 11.941406 C 71.777344 12.546875 71.859375 13.179688 71.859375 13.832031 C 71.859375 18.367188 68.179688 22.050781 63.640625 22.050781 C 59.097656 22.050781 55.417969 18.367188 55.417969 13.832031 C 55.417969 13.195312 55.496094 12.578125 55.632812 11.984375 C 55.785156 12.003906 55.945312 12.019531 56.109375 12.019531 Z M 56.109375 12.019531 "/>
<path style=" stroke:none;fill-rule:evenodd;fill:rgb(2.352905%,1.960754%,1.960754%);fill-opacity:1;" d="M 60.09375 13.804688 C 62.53125 13.8125 64.96875 13.898438 67.40625 13.769531 C 67.472656 14.054688 67.511719 14.351562 67.511719 14.65625 C 67.511719 16.792969 65.777344 18.53125 63.640625 18.53125 C 61.5 18.53125 59.765625 16.792969 59.765625 14.65625 C 59.765625 14.359375 59.800781 14.070312 59.867188 13.789062 C 59.941406 13.796875 60.015625 13.804688 60.09375 13.804688 Z M 60.09375 13.804688 "/>
<path style=" stroke:none;fill-rule:evenodd;fill:rgb(5.097961%,26.66626%,0.784302%);fill-opacity:1;" d="M 51.09375 11.898438 C 50.957031 11.652344 50.875 11.371094 50.875 11.074219 C 50.875 10.113281 51.652344 9.339844 52.609375 9.339844 L 75.207031 9.339844 C 76.167969 9.339844 76.945312 10.113281 76.945312 11.074219 C 76.945312 11.445312 76.820312 11.789062 76.625 12.070312 C 77.203125 12.386719 77.601562 12.992188 77.601562 13.695312 C 77.601562 14.722656 76.769531 15.554688 75.742188 15.554688 L 51.535156 15.554688 C 50.507812 15.554688 49.679688 14.722656 49.679688 13.695312 C 49.679688 12.824219 50.28125 12.097656 51.09375 11.898438 Z M 51.09375 11.898438 "/>
<path style=" stroke:none;fill-rule:evenodd;fill:rgb(99.998474%,99.998474%,99.998474%);fill-opacity:1;" d="M 27.902344 18.375 C 33.078125 18.394531 38.25 18.574219 43.425781 18.296875 C 43.566406 18.902344 43.652344 19.535156 43.652344 20.183594 C 43.652344 24.722656 39.96875 28.40625 35.429688 28.40625 C 30.886719 28.40625 27.207031 24.722656 27.207031 20.183594 C 27.207031 19.550781 27.285156 18.933594 27.421875 18.339844 C 27.578125 18.359375 27.734375 18.371094 27.902344 18.375 Z M 27.902344 18.375 "/>
<path style=" stroke:none;fill-rule:evenodd;fill:rgb(2.352905%,1.960754%,1.960754%);fill-opacity:1;" d="M 32.484375 20.941406 C 34.507812 20.949219 36.53125 21.023438 38.554688 20.914062 C 38.613281 21.148438 38.644531 21.394531 38.644531 21.648438 C 38.644531 23.425781 37.207031 24.867188 35.429688 24.867188 C 33.652344 24.867188 32.214844 23.425781 32.214844 21.648438 C 32.214844 21.402344 32.246094 21.160156 32.296875 20.929688 C 32.359375 20.9375 32.421875 20.941406 32.484375 20.941406 Z M 32.484375 20.941406 "/>
<path style=" stroke:none;fill-rule:evenodd;fill:rgb(5.097961%,26.66626%,0.784302%);fill-opacity:1;" d="M 24.433594 18.046875 C 24.316406 17.832031 24.242188 17.585938 24.242188 17.324219 C 24.242188 16.484375 24.925781 15.804688 25.765625 15.804688 L 45.570312 15.804688 C 46.40625 15.804688 47.089844 16.484375 47.089844 17.324219 C 47.089844 17.652344 46.984375 17.953125 46.808594 18.199219 C 47.3125 18.472656 47.664062 19.003906 47.664062 19.625 C 47.664062 20.523438 46.933594 21.25 46.035156 21.25 L 24.824219 21.25 C 23.925781 21.25 23.195312 20.523438 23.195312 19.625 C 23.195312 18.859375 23.726562 18.222656 24.433594 18.046875 Z M 24.433594 18.046875 "/>
<path style=" stroke:none;fill-rule:evenodd;fill:rgb(6.666565%,34.901428%,0.784302%);fill-opacity:1;" d="M 76.621094 12.070312 C 76.621094 12.070312 72.386719 12.449219 62.902344 12.449219 C 53.738281 12.449219 51.550781 11.941406 51.550781 11.941406 C 51.550781 11.941406 54.300781 13.363281 64.085938 13.359375 C 72.347656 13.355469 76.621094 12.070312 76.621094 12.070312 Z M 76.621094 12.070312 "/>
<path style=" stroke:none;fill-rule:evenodd;fill:rgb(6.666565%,34.901428%,0.784302%);fill-opacity:1;" d="M 46.28125 18.222656 C 46.28125 18.222656 42.617188 18.601562 34.40625 18.601562 C 26.472656 18.601562 24.578125 18.097656 24.578125 18.097656 C 24.578125 18.097656 26.957031 19.515625 35.429688 19.511719 C 42.582031 19.507812 46.28125 18.222656 46.28125 18.222656 Z M 46.28125 18.222656 "/>
<path style=" stroke:none;fill-rule:evenodd;fill:rgb(2.352905%,1.960754%,1.960754%);fill-opacity:1;" d="M 35.882812 57.652344 C 38.269531 54.035156 43.695312 57.980469 50.519531 57.652344 C 57.34375 57.324219 62.582031 51.34375 66.304688 56.5 C 70.582031 62.417969 64.578125 67.1875 51.34375 66.449219 C 38.101562 65.710938 33.5 61.269531 35.882812 57.652344 Z M 35.882812 57.652344 "/>
<path style=" stroke:none;fill-rule:evenodd;fill:rgb(9.411621%,49.803162%,1.176453%);fill-opacity:1;" d="M 71.664062 70.964844 C 71.632812 69.015625 73.253906 67.757812 74.210938 69.796875 C 75.164062 71.835938 76.675781 89.460938 71.976562 91.078125 C 67.28125 92.6875 66.628906 90.234375 62.007812 90.207031 C 57.390625 90.175781 54.886719 94.011719 52.109375 93.644531 C 49.332031 93.277344 48.980469 90.410156 44.984375 90.988281 C 40.992188 91.5625 39.804688 94.246094 35.886719 93.386719 C 31.976562 92.523438 30.203125 90.703125 27.03125 91.269531 C 23.855469 91.828125 20.015625 95.585938 18.875 94.679688 C 17.730469 93.773438 24.605469 87.097656 29.558594 88.867188 C 34.511719 90.636719 35.855469 91.128906 38.609375 90.160156 C 41.367188 89.195312 44.308594 87.097656 47.921875 88.375 C 51.535156 89.652344 51.863281 91.1875 55.625 88.765625 C 59.382812 86.347656 61.019531 85.910156 64.839844 87.492188 C 68.664062 89.074219 70.632812 90.273438 71.5625 84.105469 C 72.488281 77.929688 71.664062 70.964844 71.664062 70.964844 Z M 71.664062 70.964844 "/>
<path style=" stroke:none;fill-rule:evenodd;fill:rgb(57.646179%,69.802856%,33.724976%);fill-opacity:1;" d="M 51.304688 62.324219 C 51.304688 62.324219 49.664062 60.46875 47.269531 61.707031 C 45.632812 62.554688 42.617188 75.046875 53.015625 73.679688 C 63.417969 72.3125 57.0625 60.992188 54.589844 60.992188 C 51.714844 60.988281 51.304688 62.324219 51.304688 62.324219 Z M 51.304688 62.324219 "/>
<path style=" stroke:none;fill-rule:evenodd;fill:rgb(50.979614%,60.783386%,27.450562%);fill-opacity:1;" d="M 51.472656 62.90625 C 51.472656 62.90625 51.542969 72.347656 52.675781 72.175781 C 53.800781 72.003906 51.472656 62.90625 51.472656 62.90625 Z M 51.472656 62.90625 "/>
</g>
</svg>
