<?xml version="1.0" encoding="UTF-8"?>
<svg xmlns="http://www.w3.org/2000/svg" xmlns:xlink="http://www.w3.org/1999/xlink" width="87pt" height="98pt" viewBox="0 0 87 98" version="1.1">
<g id="surface154">
<path style=" stroke:none;fill-rule:evenodd;fill:rgb(99.998474%,59.214783%,0%);fill-opacity:1;" d="M 13.894531 57.066406 C 10.773438 52.390625 11.550781 41.316406 16.699219 42.410156 C 21.847656 43.5 15.949219 52.699219 21.003906 56.597656 C 26.058594 60.5 29.957031 59.5625 29.957031 59.5625 C 29.957031 59.5625 34.167969 46.621094 34.480469 38.199219 C 34.613281 34.5625 34.632812 32.089844 34.609375 30.453125 C 29.273438 30.082031 25.054688 25.644531 25.054688 20.210938 C 25.054688 14.535156 29.65625 9.929688 35.335938 9.929688 C 41.011719 9.929688 45.613281 14.535156 45.613281 20.210938 C 45.613281 25.164062 42.109375 29.296875 37.445312 30.273438 L 37.445312 47.085938 C 37.445312 47.085938 42.277344 45.527344 49.609375 45.214844 C 56.9375 44.902344 61.617188 46.464844 61.617188 46.464844 C 61.617188 46.464844 62.632812 28.613281 61.726562 25.253906 C 56.121094 24.265625 51.863281 19.386719 51.863281 13.5 C 51.863281 6.902344 57.214844 1.550781 63.8125 1.550781 C 70.414062 1.550781 75.761719 6.898438 75.761719 13.5 C 75.761719 19.734375 70.988281 24.84375 64.898438 25.394531 C 64.980469 30.386719 66.347656 42.414062 67.855469 47.554688 C 67.855469 47.554688 72.332031 53.007812 74.464844 60.460938 C 76.773438 59.636719 80.164062 58.109375 81.515625 55.925781 C 83.65625 52.472656 82.011719 45.894531 77.488281 41.453125 C 72.96875 37.015625 76.585938 33.066406 81.355469 37.179688 C 86.121094 41.289062 88.226562 53.457031 82.984375 58.390625 C 79.933594 61.257812 76.996094 62.457031 75.066406 62.957031 C 75.164062 63.457031 75.253906 63.960938 75.324219 64.476562 C 76.640625 73.90625 79.488281 92.324219 71.15625 94.734375 C 62.824219 97.144531 62.390625 91.445312 58.003906 93.199219 C 53.617188 94.953125 53.835938 97.109375 50.546875 95.59375 C 47.257812 94.074219 45.503906 91.882812 42.65625 94.074219 C 39.804688 96.265625 35.636719 97.257812 32.789062 96.109375 C 29.9375 94.953125 27.523438 92.757812 24.457031 93.636719 C 21.386719 94.511719 21.097656 96.28125 19.851562 96.59375 C 16.40625 97.449219 15.414062 97.328125 14.671875 95.59375 C 13.933594 93.855469 17.324219 91.070312 20.753906 89.507812 C 24.1875 87.949219 25.433594 79.058594 26.527344 74.226562 C 27.621094 69.390625 29.957031 61.90625 29.957031 61.90625 C 29.957031 61.90625 17.011719 61.75 13.894531 57.066406 Z M 13.894531 57.066406 "/>
<path style=" stroke:none;fill-rule:evenodd;fill:rgb(99.998474%,99.998474%,99.998474%);fill-opacity:1;" d="M 56.109375 12.019531 C 61.289062 12.035156 66.460938 12.222656 71.636719 11.941406 C 71.777344 12.546875 71.863281 13.179688 71.863281 13.828125 C 71.863281 18.367188 68.183594 22.050781 63.640625 22.050781 C 59.101562 22.050781 55.417969 18.367188 55.417969 13.828125 C 55.417969 13.195312 55.496094 12.578125 55.632812 11.984375 C 55.789062 12.003906 55.945312 12.019531 56.109375 12.019531 Z M 56.109375 12.019531 "/>
<path style=" stroke:none;fill-rule:evenodd;fill:rgb(2.352905%,1.960754%,1.960754%);fill-opacity:1;" d="M 60.09375 13.804688 C 62.53125 13.8125 64.96875 13.898438 67.40625 13.769531 C 67.472656 14.054688 67.511719 14.351562 67.511719 14.65625 C 67.511719 16.792969 65.777344 18.53125 63.640625 18.53125 C 61.503906 18.53125 59.769531 16.792969 59.769531 14.65625 C 59.769531 14.359375 59.804688 14.070312 59.871094 13.789062 C 59.941406 13.796875 60.015625 13.804688 60.09375 13.804688 Z M 60.09375 13.804688 "/>
<path style=" stroke:none;fill-rule:evenodd;fill:rgb(65.881348%,38.430786%,1.568604%);fill-opacity:1;" d="M 51.09375 11.898438 C 50.960938 11.652344 50.875 11.375 50.875 11.074219 C 50.875 10.113281 51.652344 9.339844 52.609375 9.339844 L 75.207031 9.339844 C 76.167969 9.339844 76.941406 10.113281 76.941406 11.074219 C 76.941406 11.445312 76.824219 11.789062 76.625 12.070312 C 77.203125 12.382812 77.601562 12.992188 77.601562 13.695312 C 77.601562 14.722656 76.769531 15.554688 75.746094 15.554688 L 51.539062 15.554688 C 50.511719 15.554688 49.679688 14.722656 49.679688 13.695312 C 49.679688 12.824219 50.28125 12.097656 51.09375 11.898438 Z M 51.09375 11.898438 "/>
<path style=" stroke:none;fill-rule:evenodd;fill:rgb(99.998474%,99.998474%,99.998474%);fill-opacity:1;" d="M 27.902344 18.375 C 33.078125 18.394531 38.25 18.578125 43.425781 18.296875 C 43.566406 18.90625 43.652344 19.53125 43.652344 20.183594 C 43.652344 24.722656 39.96875 28.40625 35.429688 28.40625 C 30.886719 28.40625 27.207031 24.722656 27.207031 20.183594 C 27.207031 19.546875 27.285156 18.933594 27.421875 18.339844 C 27.578125 18.359375 27.734375 18.375 27.902344 18.375 Z M 27.902344 18.375 "/>
<path style=" stroke:none;fill-rule:evenodd;fill:rgb(2.352905%,1.960754%,1.960754%);fill-opacity:1;" d="M 32.488281 20.941406 C 34.511719 20.949219 36.535156 21.023438 38.554688 20.914062 C 38.613281 21.148438 38.644531 21.394531 38.644531 21.648438 C 38.644531 23.425781 37.207031 24.863281 35.429688 24.863281 C 33.65625 24.863281 32.214844 23.425781 32.214844 21.648438 C 32.214844 21.402344 32.246094 21.160156 32.300781 20.929688 C 32.363281 20.9375 32.421875 20.941406 32.488281 20.941406 Z M 32.488281 20.941406 "/>
<path style=" stroke:none;fill-rule:evenodd;fill:rgb(65.881348%,38.430786%,1.568604%);fill-opacity:1;" d="M 24.433594 18.046875 C 24.316406 17.832031 24.246094 17.585938 24.246094 17.324219 C 24.246094 16.484375 24.925781 15.804688 25.765625 15.804688 L 45.570312 15.804688 C 46.410156 15.804688 47.089844 16.484375 47.089844 17.324219 C 47.089844 17.652344 46.984375 17.953125 46.808594 18.199219 C 47.316406 18.476562 47.667969 19.007812 47.667969 19.625 C 47.667969 20.523438 46.9375 21.253906 46.039062 21.253906 L 24.824219 21.253906 C 23.925781 21.253906 23.195312 20.523438 23.195312 19.625 C 23.195312 18.859375 23.726562 18.222656 24.433594 18.046875 Z M 24.433594 18.046875 "/>
<path style=" stroke:none;fill-rule:evenodd;fill:rgb(35.68573%,20.783997%,0.784302%);fill-opacity:1;" d="M 76.625 12.070312 C 76.625 12.070312 72.390625 12.449219 62.902344 12.449219 C 53.738281 12.449219 51.550781 11.941406 51.550781 11.941406 C 51.550781 11.941406 54.300781 13.363281 64.085938 13.359375 C 72.351562 13.355469 76.625 12.070312 76.625 12.070312 Z M 76.625 12.070312 "/>
<path style=" stroke:none;fill-rule:evenodd;fill:rgb(35.68573%,20.783997%,0.784302%);fill-opacity:1;" d="M 46.28125 18.222656 C 46.28125 18.222656 42.617188 18.601562 34.40625 18.601562 C 26.472656 18.601562 24.578125 18.097656 24.578125 18.097656 C 24.578125 18.097656 26.960938 19.519531 35.429688 19.511719 C 42.582031 19.507812 46.28125 18.222656 46.28125 18.222656 Z M 46.28125 18.222656 "/>
<path style=" stroke:none;fill-rule:evenodd;fill:rgb(2.352905%,1.960754%,1.960754%);fill-opacity:1;" d="M 35.886719 57.652344 C 38.269531 54.035156 43.695312 57.980469 50.519531 57.652344 C 57.34375 57.324219 62.582031 51.34375 66.304688 56.5 C 70.582031 62.421875 64.578125 67.191406 51.34375 66.449219 C 38.105469 65.707031 33.5 61.269531 35.886719 57.652344 Z M 35.886719 57.652344 "/>
<path style=" stroke:none;fill-rule:evenodd;fill:rgb(93.72406%,43.528748%,43.528748%);fill-opacity:1;" d="M 71.828125 71.355469 C 71.828125 69.40625 73.472656 68.171875 74.398438 70.226562 C 75.320312 72.277344 76.550781 89.929688 71.828125 91.46875 C 67.109375 93.003906 66.496094 90.542969 61.878906 90.441406 C 57.257812 90.339844 54.691406 94.136719 51.921875 93.726562 C 49.152344 93.316406 48.84375 90.441406 44.839844 90.953125 C 40.839844 91.46875 39.609375 94.136719 35.710938 93.214844 C 31.808594 92.289062 30.066406 90.441406 26.882812 90.953125 C 23.703125 91.46875 19.804688 95.164062 18.675781 94.238281 C 17.546875 93.316406 24.523438 86.746094 29.449219 88.59375 C 34.375 90.441406 35.710938 90.953125 38.480469 90.03125 C 41.25 89.105469 44.226562 87.054688 47.820312 88.390625 C 51.410156 89.722656 51.71875 91.261719 55.515625 88.902344 C 59.3125 86.542969 60.953125 86.132812 64.75 87.773438 C 68.546875 89.414062 70.496094 90.644531 71.523438 84.492188 C 72.550781 78.332031 71.828125 71.355469 71.828125 71.355469 Z M 71.828125 71.355469 "/>
<path style=" stroke:none;fill-rule:evenodd;fill:rgb(57.646179%,69.802856%,33.724976%);fill-opacity:1;" d="M 51.304688 62.324219 C 51.304688 62.324219 49.664062 60.46875 47.269531 61.707031 C 45.632812 62.554688 42.617188 75.046875 53.015625 73.679688 C 63.414062 72.3125 57.0625 60.996094 54.589844 60.992188 C 51.714844 60.988281 51.304688 62.324219 51.304688 62.324219 Z M 51.304688 62.324219 "/>
<path style=" stroke:none;fill-rule:evenodd;fill:rgb(50.979614%,60.783386%,27.450562%);fill-opacity:1;" d="M 51.476562 62.90625 C 51.476562 62.90625 51.546875 72.347656 52.675781 72.175781 C 53.804688 72.007812 51.476562 62.90625 51.476562 62.90625 Z M 51.476562 62.90625 "/>
</g>
</svg>
