<?xml version="1.0" encoding="UTF-8"?>
<svg xmlns="http://www.w3.org/2000/svg" xmlns:xlink="http://www.w3.org/1999/xlink" width="90pt" height="90pt" viewBox="0 0 90 90" version="1.1">
<g id="surface161">
<path style=" stroke:none;fill-rule:evenodd;fill:rgb(0%,85.881042%,75.292969%);fill-opacity:1;" d="M 16.980469 49.496094 C 8.078125 57.097656 6.78125 68.996094 15.21875 67.160156 C 20.1875 66.078125 28.207031 54.648438 30.640625 48.085938 C 33.070312 41.519531 25.882812 41.898438 16.980469 49.496094 Z M 16.980469 49.496094 "/>
<path style=" stroke:none;fill-rule:evenodd;fill:rgb(1.960754%,57.646179%,49.411011%);fill-opacity:1;" d="M 19.605469 64.4375 C 24.011719 60.40625 28.84375 52.925781 30.640625 48.085938 C 32.238281 43.761719 29.671875 42.453125 25.195312 44.222656 C 25.199219 47.296875 25.089844 54.058594 24.171875 56.445312 C 23.371094 58.535156 21.054688 62.222656 19.605469 64.4375 Z M 19.605469 64.4375 "/>
<path style=" stroke:none;fill-rule:evenodd;fill:rgb(0%,85.881042%,75.292969%);fill-opacity:1;" d="M 64.289062 81.683594 C 55.9375 79.65625 43.832031 79.53125 35.148438 82.128906 C 31.847656 83.257812 20.972656 85.632812 22.074219 75.480469 C 25.28125 58.851562 27.234375 43.023438 26.273438 29.0625 C 26.273438 25.757812 28.976562 23.058594 32.277344 23.058594 L 65.890625 19.257812 C 69.191406 19.257812 71.894531 21.957031 71.894531 25.257812 C 70.738281 39.992188 73.265625 57.359375 76.695312 75.480469 C 78.195312 85.183594 68.050781 82.664062 64.289062 81.683594 Z M 64.289062 81.683594 "/>
<path style=" stroke:none;fill-rule:evenodd;fill:rgb(35.293579%,99.998474%,90.586853%);fill-opacity:1;" d="M 28.90625 27.027344 C 31.175781 24.460938 42.25 23.261719 44.429688 22.347656 C 44.792969 22.199219 45.183594 21.917969 45.582031 21.554688 L 32.277344 23.058594 C 28.976562 23.058594 26.273438 25.757812 26.273438 29.0625 C 26.484375 32.078125 26.554688 35.183594 26.503906 38.367188 C 26.992188 33.511719 27.765625 28.316406 28.90625 27.027344 Z M 28.90625 27.027344 "/>
<path style=" stroke:none;fill-rule:evenodd;fill:rgb(1.960754%,57.646179%,49.411011%);fill-opacity:1;" d="M 71.722656 27.976562 C 71.722656 27.976562 70.195312 34.855469 70.34375 37.460938 C 70.492188 40.066406 71.277344 59.300781 71.410156 64.914062 C 71.542969 70.527344 73.976562 72.5 67.882812 75.339844 C 61.789062 78.179688 35.859375 82.015625 31.792969 80.847656 C 29.128906 80.082031 25.339844 81.234375 22.296875 79.167969 C 23.988281 84.964844 32.328125 83.09375 35.148438 82.128906 C 43.832031 79.53125 55.9375 79.65625 64.289062 81.683594 C 68.050781 82.664062 78.195312 85.183594 76.695312 75.480469 C 73.472656 58.460938 71.046875 42.109375 71.722656 27.976562 Z M 71.722656 27.976562 "/>
<path style=" stroke:none;fill-rule:evenodd;fill:rgb(0%,85.881042%,75.292969%);fill-opacity:1;" d="M 82.019531 49.496094 C 90.921875 57.097656 92.21875 68.996094 83.78125 67.160156 C 78.8125 66.078125 70.792969 54.648438 68.359375 48.085938 C 65.929688 41.519531 73.117188 41.898438 82.019531 49.496094 Z M 82.019531 49.496094 "/>
<path style=" stroke:none;fill-rule:evenodd;fill:rgb(1.960754%,57.646179%,49.411011%);fill-opacity:1;" d="M 88.898438 59.46875 C 88.496094 61.566406 87.507812 63.414062 85.496094 63.875 C 81.996094 64.675781 74.933594 59.425781 74.929688 59.421875 C 77.90625 63.347656 81.242188 66.605469 83.78125 67.160156 C 88.863281 68.265625 90.414062 64.390625 88.898438 59.46875 Z M 88.898438 59.46875 "/>
<path style=" stroke:none;fill-rule:evenodd;fill:rgb(23.921204%,23.921204%,23.921204%);fill-opacity:1;" d="M 41.203125 38.21875 C 41.203125 38.835938 40.703125 39.335938 40.085938 39.335938 C 39.464844 39.335938 38.964844 38.835938 38.964844 38.21875 C 38.964844 37.601562 39.464844 37.101562 40.085938 37.101562 C 40.703125 37.101562 41.203125 37.601562 41.203125 38.21875 Z M 41.203125 38.21875 "/>
<path style=" stroke:none;fill-rule:evenodd;fill:rgb(23.921204%,23.921204%,23.921204%);fill-opacity:1;" d="M 54.953125 37.101562 C 54.953125 37.71875 54.453125 38.21875 53.835938 38.21875 C 53.21875 38.21875 52.71875 37.71875 52.71875 37.101562 C 52.71875 36.484375 53.21875 35.980469 53.835938 35.980469 C 54.453125 35.980469 54.953125 36.484375 54.953125 37.101562 Z M 54.953125 37.101562 "/>
<path style=" stroke:none;fill-rule:evenodd;fill:rgb(15.293884%,50.979614%,49.01886%);fill-opacity:1;" d="M 70.09375 26.335938 C 68.328125 28.054688 65.414062 27.921875 63.578125 26.039062 C 61.746094 24.15625 61.6875 21.234375 63.453125 19.515625 C 65.21875 17.796875 68.136719 17.933594 69.96875 19.8125 C 71.804688 21.699219 71.859375 24.617188 70.09375 26.335938 Z M 70.09375 26.335938 "/>
<path style=" stroke:none;fill-rule:evenodd;fill:rgb(79.606628%,86.273193%,11.372375%);fill-opacity:1;" d="M 70.519531 25.835938 C 70.964844 25.445312 71.40625 25.035156 71.847656 24.605469 C 77.117188 19.472656 81.449219 12.28125 79.613281 10.398438 C 77.78125 8.515625 70.476562 12.652344 65.207031 17.785156 C 64.765625 18.214844 64.34375 18.648438 63.941406 19.078125 C 60.207031 23.390625 66.296875 29.671875 70.519531 25.835938 Z M 70.519531 25.835938 "/>
<path style=" stroke:none;fill-rule:evenodd;fill:rgb(62.35199%,67.449951%,7.843018%);fill-opacity:1;" d="M 77.460938 17.816406 C 76.070312 17.175781 74.691406 16.296875 73.40625 15.183594 C 72.59375 14.480469 71.867188 13.726562 71.226562 12.941406 C 70.859375 13.179688 70.492188 13.429688 70.125 13.691406 C 70.628906 14.257812 71.179688 14.800781 71.773438 15.316406 C 73.433594 16.753906 75.246094 17.796875 77.042969 18.4375 C 77.1875 18.230469 77.328125 18.019531 77.460938 17.816406 Z M 77.460938 17.816406 "/>
<path style=" stroke:none;fill-rule:evenodd;fill:rgb(62.35199%,67.449951%,7.843018%);fill-opacity:1;" d="M 63.855469 19.1875 C 63.410156 19.730469 63.113281 20.304688 62.949219 20.882812 C 64.285156 23.152344 66.511719 25.226562 69.320312 26.644531 C 69.730469 26.453125 70.132812 26.1875 70.519531 25.835938 C 67.417969 24.207031 65.054688 21.773438 63.855469 19.1875 Z M 63.855469 19.1875 "/>
<path style=" stroke:none;fill-rule:evenodd;fill:rgb(62.35199%,67.449951%,7.843018%);fill-opacity:1;" d="M 79.527344 13.941406 C 78.039062 13.207031 76.578125 12.191406 75.242188 10.902344 C 75.199219 10.859375 75.15625 10.816406 75.113281 10.773438 C 74.773438 10.921875 74.425781 11.089844 74.066406 11.269531 C 74.441406 11.710938 74.847656 12.144531 75.277344 12.558594 C 76.425781 13.664062 77.664062 14.570312 78.933594 15.269531 C 79.164062 14.808594 79.363281 14.363281 79.527344 13.941406 Z M 79.527344 13.941406 "/>
<path style=" stroke:none;fill-rule:evenodd;fill:rgb(62.35199%,67.449951%,7.843018%);fill-opacity:1;" d="M 67.5 18.136719 C 69.039062 20.429688 70.996094 22.21875 73.050781 23.378906 C 73.421875 22.984375 73.78125 22.585938 74.136719 22.179688 C 71.816406 21.054688 69.570312 19.121094 67.851562 16.550781 C 67.6875 16.308594 67.535156 16.0625 67.382812 15.816406 C 67.105469 16.050781 66.824219 16.292969 66.550781 16.539062 C 66.835938 17.074219 67.148438 17.609375 67.5 18.136719 Z M 67.5 18.136719 "/>
<path style=" stroke:none;fill-rule:evenodd;fill:rgb(23.921204%,23.921204%,23.921204%);fill-opacity:1;" d="M 70.570312 23.414062 C 66.910156 25.636719 64.535156 23.3125 62.839844 21.355469 C 62.199219 25.210938 67.003906 29.027344 70.519531 25.835938 C 70.964844 25.445312 71.40625 25.035156 71.847656 24.605469 C 75.144531 21.394531 78.074219 17.375 79.355469 14.359375 C 76.976562 17.335938 73.128906 21.863281 70.570312 23.414062 Z M 70.570312 23.414062 "/>
<path style=" stroke:none;fill-rule:evenodd;fill:rgb(15.293884%,50.979614%,49.01886%);fill-opacity:1;" d="M 26.398438 30.425781 C 27.894531 31.855469 30.210938 31.894531 31.574219 30.515625 C 32.9375 29.132812 32.832031 26.855469 31.335938 25.429688 C 29.839844 24 27.523438 23.964844 26.160156 25.34375 C 24.796875 26.722656 24.902344 29 26.398438 30.425781 Z M 26.398438 30.425781 "/>
<path style=" stroke:none;fill-rule:evenodd;fill:rgb(79.606628%,86.273193%,11.372375%);fill-opacity:1;" d="M 26.019531 30.019531 C 25.644531 29.691406 25.269531 29.347656 24.894531 28.992188 C 20.429688 24.726562 16.605469 18.902344 17.972656 17.519531 C 19.335938 16.140625 25.367188 19.730469 29.832031 23.996094 C 30.207031 24.351562 30.566406 24.707031 30.910156 25.066406 C 34.105469 28.613281 29.582031 33.21875 26.019531 30.019531 Z M 26.019531 30.019531 "/>
<path style=" stroke:none;fill-rule:evenodd;fill:rgb(62.35199%,67.449951%,7.843018%);fill-opacity:1;" d="M 20.070312 23.417969 C 21.148438 22.984375 22.199219 22.367188 23.164062 21.5625 C 23.777344 21.054688 24.316406 20.5 24.785156 19.914062 C 25.089844 20.121094 25.394531 20.335938 25.703125 20.558594 C 25.332031 20.972656 24.921875 21.371094 24.472656 21.746094 C 23.222656 22.785156 21.835938 23.507812 20.4375 23.921875 C 20.3125 23.753906 20.1875 23.582031 20.070312 23.417969 Z M 20.070312 23.417969 "/>
<path style=" stroke:none;fill-rule:evenodd;fill:rgb(62.35199%,67.449951%,7.843018%);fill-opacity:1;" d="M 30.980469 25.15625 C 31.367188 25.601562 31.632812 26.0625 31.792969 26.523438 C 30.84375 28.226562 29.179688 29.738281 27.015625 30.707031 C 26.679688 30.539062 26.34375 30.3125 26.019531 30.019531 C 26.015625 30.019531 26.015625 30.019531 26.015625 30.019531 C 28.402344 28.898438 30.160156 27.117188 30.980469 25.15625 Z M 30.980469 25.15625 "/>
<path style=" stroke:none;fill-rule:evenodd;fill:rgb(62.35199%,67.449951%,7.843018%);fill-opacity:1;" d="M 18.226562 20.292969 C 19.371094 19.789062 20.484375 19.070312 21.480469 18.128906 C 21.515625 18.097656 21.542969 18.066406 21.574219 18.035156 C 21.855469 18.167969 22.140625 18.316406 22.433594 18.472656 C 22.160156 18.800781 21.859375 19.117188 21.539062 19.421875 C 20.679688 20.226562 19.742188 20.875 18.765625 21.359375 C 18.558594 20.984375 18.378906 20.628906 18.226562 20.292969 Z M 18.226562 20.292969 "/>
<path style=" stroke:none;fill-rule:evenodd;fill:rgb(62.35199%,67.449951%,7.843018%);fill-opacity:1;" d="M 28.023438 24.15625 C 26.917969 25.871094 25.449219 27.171875 23.875 27.976562 C 23.558594 27.652344 23.25 27.320312 22.945312 26.988281 C 24.738281 26.222656 26.425781 24.820312 27.660156 22.902344 C 27.78125 22.71875 27.886719 22.535156 27.996094 22.347656 C 28.230469 22.546875 28.464844 22.75 28.695312 22.953125 C 28.5 23.359375 28.273438 23.761719 28.023438 24.15625 Z M 28.023438 24.15625 "/>
<path style=" stroke:none;fill-rule:evenodd;fill:rgb(23.921204%,23.921204%,23.921204%);fill-opacity:1;" d="M 25.851562 28.125 C 28.882812 30.042969 30.65625 28.34375 31.902344 26.898438 C 32.613281 29.9375 28.984375 32.683594 26.019531 30.019531 C 25.644531 29.691406 25.269531 29.347656 24.894531 28.992188 C 22.101562 26.324219 19.5625 23.046875 18.382812 20.625 C 20.433594 23.066406 23.734375 26.789062 25.851562 28.125 Z M 25.851562 28.125 "/>
<path style=" stroke:none;fill-rule:evenodd;fill:rgb(9.01947%,33.724976%,32.548523%);fill-opacity:1;" d="M 58.203125 81.179688 C 52.699219 79.847656 44.722656 79.765625 39 81.472656 C 36.824219 82.214844 29.65625 83.773438 30.382812 77.105469 C 32.496094 66.179688 33.785156 55.78125 33.152344 46.609375 C 33.152344 44.441406 34.929688 42.667969 37.105469 42.667969 L 59.257812 40.167969 C 61.433594 40.167969 63.214844 41.945312 63.214844 44.113281 C 62.449219 53.792969 64.117188 65.199219 66.375 77.101562 C 67.367188 83.480469 60.679688 81.824219 58.203125 81.179688 Z M 58.203125 81.179688 "/>
<path style=" stroke:none;fill-rule:evenodd;fill:rgb(1.176453%,47.842407%,39.99939%);fill-opacity:1;" d="M 58.746094 81.730469 C 53.316406 80.398438 45.4375 80.316406 39.789062 82.019531 C 37.640625 82.765625 30.566406 84.324219 31.28125 77.65625 C 33.367188 66.730469 34.640625 56.332031 34.015625 47.160156 C 34.015625 44.992188 35.773438 43.21875 37.921875 43.21875 L 59.789062 40.71875 C 61.9375 40.71875 63.695312 42.496094 63.695312 44.664062 C 62.941406 54.34375 64.585938 65.75 66.820312 77.65625 C 67.796875 84.03125 61.195312 82.375 58.746094 81.730469 Z M 58.746094 81.730469 "/>
<path style=" stroke:none;fill-rule:evenodd;fill:rgb(23.921204%,23.921204%,23.921204%);fill-opacity:1;" d="M 56.941406 69.359375 C 56.941406 73.289062 53.757812 76.472656 49.824219 76.472656 C 45.894531 76.472656 42.710938 73.289062 42.710938 69.359375 C 42.710938 65.429688 45.894531 62.242188 49.824219 62.242188 C 53.757812 62.242188 56.941406 65.429688 56.941406 69.359375 Z M 56.941406 69.359375 "/>
<path style=" stroke:none;fill-rule:evenodd;fill:rgb(23.921204%,23.921204%,23.921204%);fill-opacity:1;" d="M 39.789062 82.019531 C 45.4375 80.316406 53.316406 80.398438 58.746094 81.730469 C 61.195312 82.375 67.796875 84.03125 66.820312 77.65625 C 65.441406 70.296875 64.285156 63.132812 63.78125 56.445312 C 63.34375 60.214844 63.707031 65.195312 62.140625 65.824219 C 57.542969 67.675781 45.507812 70.628906 44.429688 70.128906 C 43.304688 69.597656 37.273438 68.140625 35.628906 68.976562 C 34.601562 69.496094 34.136719 63.800781 33.726562 61.078125 C 33.234375 66.394531 32.371094 71.953125 31.28125 77.65625 C 30.566406 84.324219 37.640625 82.765625 39.789062 82.019531 Z M 39.789062 82.019531 "/>
<path style=" stroke:none;fill-rule:evenodd;fill:rgb(99.998474%,99.998474%,99.998474%);fill-opacity:1;" d="M 37.921875 43.21875 L 40.085938 47.371094 L 41.203125 46.117188 L 55.859375 45.691406 L 57.511719 48.179688 L 59.457031 40.757812 Z M 37.921875 43.21875 "/>
<path style=" stroke:none;fill-rule:evenodd;fill:rgb(82.743835%,96.076965%,99.998474%);fill-opacity:1;" d="M 38.183594 43.722656 C 41.609375 43.371094 54.988281 42.191406 59.175781 41.828125 L 59.457031 40.757812 L 37.921875 43.21875 Z M 38.183594 43.722656 "/>
<path style=" stroke:none;fill-rule:evenodd;fill:rgb(82.743835%,96.076965%,99.998474%);fill-opacity:1;" d="M 40.480469 46.925781 L 41.203125 45.09375 L 42.441406 46.082031 L 41.203125 46.117188 Z M 40.480469 46.925781 "/>
<path style=" stroke:none;fill-rule:evenodd;fill:rgb(82.743835%,96.076965%,99.998474%);fill-opacity:1;" d="M 50.460938 45.847656 L 56.160156 45.316406 L 57.164062 47.652344 L 55.859375 45.691406 Z M 50.460938 45.847656 "/>
<path style=" stroke:none;fill-rule:evenodd;fill:rgb(82.743835%,96.076965%,99.998474%);fill-opacity:1;" d="M 58.550781 44.21875 C 58.550781 44.207031 59.457031 40.757812 59.457031 40.757812 L 58.453125 40.871094 C 58.453125 40.871094 58.546875 44.226562 58.550781 44.21875 Z M 58.550781 44.21875 "/>
<path style=" stroke:none;fill-rule:evenodd;fill:rgb(94.508362%,73.332214%,50.979614%);fill-opacity:1;" d="M 65.738281 71.605469 C 65.738281 71.605469 62.089844 68.277344 56.886719 68.277344 C 51.683594 68.277344 46.882812 71.605469 46.882812 71.605469 C 46.882812 71.605469 39.878906 68.003906 35.277344 69.941406 C 30.675781 71.878906 23.167969 81.683594 25.820312 86.082031 C 28.476562 90.484375 38.480469 90.285156 44.28125 88.683594 C 50.082031 87.085938 56.886719 85.882812 59.285156 86.28125 C 61.6875 86.683594 67.902344 86.207031 67.882812 80.132812 C 67.878906 78.492188 67.210938 72.6875 65.738281 71.605469 Z M 65.738281 71.605469 "/>
<path style=" stroke:none;fill-rule:evenodd;fill:rgb(87.841797%,56.861877%,30.195618%);fill-opacity:1;" d="M 67.882812 80.132812 C 67.878906 78.628906 67.316406 73.625 66.085938 71.96875 C 66.375 74.664062 66.738281 79.273438 66.066406 81.03125 C 65.089844 83.582031 58.699219 81.140625 56.941406 81.347656 C 55.1875 81.558594 42.507812 87.410156 37.179688 87.632812 C 33.738281 87.78125 29.050781 86.761719 25.535156 85.457031 C 25.613281 85.675781 25.703125 85.886719 25.820312 86.082031 C 28.476562 90.484375 38.480469 90.285156 44.28125 88.683594 C 50.082031 87.085938 56.886719 85.882812 59.289062 86.28125 C 61.6875 86.683594 67.902344 86.207031 67.882812 80.132812 Z M 67.882812 80.132812 "/>
<path style=" stroke:none;fill-rule:evenodd;fill:rgb(77.645874%,46.665955%,23.529053%);fill-opacity:1;" d="M 66.214844 83.730469 C 64.679688 85.546875 61.714844 85.457031 60.589844 85.382812 C 59.460938 85.308594 55.410156 84.996094 53.683594 85.414062 C 52.25 85.761719 43.445312 88.515625 40.523438 89.433594 C 41.875 89.25 43.15625 88.996094 44.28125 88.683594 C 50.082031 87.085938 56.886719 85.882812 59.289062 86.28125 C 61.6875 86.683594 67.902344 86.207031 67.882812 80.132812 C 67.878906 79.4375 67.757812 77.992188 67.507812 76.476562 C 67.507812 76.507812 67.742188 81.925781 66.214844 83.730469 Z M 66.214844 83.730469 "/>
<path style=" stroke:none;fill-rule:evenodd;fill:rgb(87.841797%,56.861877%,30.195618%);fill-opacity:1;" d="M 44.929688 70.753906 C 44.207031 71.636719 43.183594 73.066406 42.710938 74.578125 C 41.9375 77.054688 41.980469 79.832031 41.980469 79.832031 C 41.980469 79.832031 41.980469 78.179688 43.257812 76.15625 C 44.53125 74.128906 46.882812 71.605469 46.882812 71.605469 C 46.882812 71.605469 46.117188 71.210938 44.929688 70.753906 Z M 44.929688 70.753906 "/>
<path style=" stroke:none;fill-rule:evenodd;fill:rgb(97.645569%,81.175232%,66.665649%);fill-opacity:1;" d="M 40.523438 69.539062 C 38.746094 69.261719 36.867188 69.269531 35.277344 69.941406 C 32.253906 71.214844 27.980469 75.882812 26.152344 80.179688 C 28.210938 77.3125 31.15625 73.480469 33.203125 71.96875 C 36.648438 69.425781 40.515625 69.539062 40.523438 69.539062 Z M 40.523438 69.539062 "/>
</g>
</svg>
