<?xml version="1.0" encoding="UTF-8"?>
<svg xmlns="http://www.w3.org/2000/svg" xmlns:xlink="http://www.w3.org/1999/xlink" width="94pt" height="92pt" viewBox="0 0 94 92" version="1.1">
<g id="surface224">
<path style=" stroke:none;fill-rule:evenodd;fill:rgb(43.920898%,31.764221%,36.077881%);fill-opacity:1;" d="M 8.121094 41.671875 C 7.910156 41.707031 7.816406 44.300781 8.429688 44.453125 C 9.046875 44.605469 8.332031 41.636719 8.121094 41.671875 Z M 8.121094 41.671875 "/>
<path style=" stroke:none;fill-rule:evenodd;fill:rgb(43.920898%,31.764221%,36.077881%);fill-opacity:1;" d="M 6.734375 42.324219 C 6.527344 42.359375 6.429688 44.953125 7.046875 45.105469 C 7.660156 45.257812 6.945312 42.289062 6.734375 42.324219 Z M 6.734375 42.324219 "/>
<path style=" stroke:none;fill-rule:evenodd;fill:rgb(43.920898%,31.764221%,36.077881%);fill-opacity:1;" d="M 5.609375 43.546875 C 5.402344 43.578125 5.300781 46.175781 5.917969 46.328125 C 6.535156 46.480469 5.820312 43.511719 5.609375 43.546875 Z M 5.609375 43.546875 "/>
<path style=" stroke:none;fill-rule:evenodd;fill:rgb(59.999084%,59.999084%,59.999084%);fill-opacity:1;" d="M 85.875 55.886719 C 82.75 54.054688 78.394531 54.160156 74.980469 54.664062 C 75.488281 51.980469 75.796875 50.277344 75.796875 50.277344 L 75.789062 50.277344 C 76.414062 47.265625 76.75 44.097656 76.75 40.828125 C 76.75 20.699219 64.199219 4.378906 48.714844 4.378906 C 33.234375 4.378906 20.6875 20.699219 20.6875 40.828125 C 20.6875 43.3125 20.878906 45.734375 21.242188 48.082031 C 21.242188 48.082031 21.242188 48.09375 21.246094 48.109375 C 21.261719 48.199219 21.277344 48.28125 21.292969 48.371094 C 21.464844 49.40625 22.097656 53.144531 22.972656 57.945312 C 20.738281 57.792969 18.265625 57.007812 16.144531 54.609375 C 13.183594 51.253906 13.125 41.625 7.554688 43.585938 C 1.980469 45.550781 7.203125 58.53125 13.125 62.003906 C 16.234375 63.828125 20.554688 63.738281 23.960938 63.238281 C 25.5 71.335938 27.429688 80.570312 28.988281 85.242188 C 32.117188 94.621094 38.785156 90.90625 39.601562 88.074219 C 40.417969 85.242188 38.804688 81.347656 41.371094 79.050781 C 42.824219 77.75 45.335938 77.351562 47.242188 77.253906 L 47.230469 77.28125 C 47.230469 77.28125 47.425781 77.261719 47.75 77.246094 C 48.070312 77.261719 48.394531 77.28125 48.714844 77.28125 C 48.960938 77.28125 49.203125 77.261719 49.445312 77.253906 C 49.675781 77.269531 49.804688 77.28125 49.804688 77.28125 L 49.796875 77.253906 C 51.703125 77.351562 54.214844 77.75 55.667969 79.050781 C 58.234375 81.347656 56.621094 85.242188 57.4375 88.074219 C 58.253906 90.90625 64.921875 94.621094 68.050781 85.242188 C 69.921875 79.632812 72.324219 68.230469 73.953125 59.964844 C 76.628906 59.765625 80.054688 60.105469 82.855469 63.285156 C 85.820312 66.644531 85.875 76.269531 91.449219 74.308594 C 97.019531 72.34375 91.796875 59.359375 85.875 55.886719 Z M 85.875 55.886719 "/>
<path style=" stroke:none;fill-rule:evenodd;fill:rgb(73.724365%,73.724365%,73.724365%);fill-opacity:1;" d="M 8.4375 56.441406 C 8.878906 56.886719 9.75 56.277344 9.765625 56.65625 C 9.734375 56 9.785156 55.402344 9.882812 54.757812 C 10.054688 53.636719 10.84375 52.609375 11.574219 52.058594 C 12.246094 51.554688 12.980469 51.234375 13.65625 50.757812 C 13.84375 50.628906 13.972656 50.535156 14.066406 50.453125 C 12.667969 46.574219 11.480469 42.203125 7.554688 43.585938 C 3.867188 44.882812 4.90625 50.996094 7.742188 55.996094 C 7.976562 56.074219 8.214844 56.214844 8.4375 56.441406 Z M 8.4375 56.441406 "/>
<path style=" stroke:none;fill-rule:evenodd;fill:rgb(73.724365%,73.724365%,73.724365%);fill-opacity:1;" d="M 67.679688 74.1875 C 66.746094 75.082031 65.644531 75.425781 64.5 75.078125 C 63.609375 74.804688 61.746094 73.222656 60.875 73.960938 C 59.78125 74.886719 58.792969 76.40625 57.398438 76.5 C 56.191406 76.582031 55.238281 75.625 54.445312 74.539062 C 53.835938 73.703125 53.3125 72.539062 52.4375 73.246094 C 50.78125 74.582031 49.359375 76.078125 47.277344 75.667969 C 46.03125 75.421875 45.070312 74.558594 44.042969 73.679688 C 42.964844 72.761719 42.285156 72.5625 41.453125 73.933594 C 39.894531 76.5 37.445312 77.09375 35.464844 74.878906 C 35.328125 74.726562 34.453125 73.6875 34.421875 73.714844 C 34.074219 74.054688 33.835938 74.5625 33.5 74.921875 C 32.585938 75.902344 31.605469 76.496094 30.425781 75.925781 C 29.070312 75.269531 28.894531 73.792969 28.453125 72.230469 C 28.40625 72.058594 26.839844 72 26.660156 72.03125 C 26.332031 72.082031 26.054688 72.261719 25.8125 72.511719 C 26.894531 77.609375 28.011719 82.320312 28.988281 85.242188 C 32.117188 94.617188 38.785156 90.90625 39.601562 88.070312 C 40.417969 85.242188 38.804688 81.347656 41.371094 79.046875 C 42.824219 77.746094 45.335938 77.351562 47.242188 77.253906 L 47.230469 77.28125 C 47.230469 77.28125 47.425781 77.261719 47.75 77.246094 C 48.074219 77.261719 48.394531 77.28125 48.714844 77.28125 C 48.960938 77.28125 49.203125 77.261719 49.445312 77.253906 C 49.675781 77.269531 49.804688 77.28125 49.804688 77.28125 L 49.796875 77.253906 C 51.703125 77.351562 54.214844 77.746094 55.667969 79.046875 C 58.234375 81.347656 56.621094 85.242188 57.4375 88.070312 C 58.253906 90.90625 64.921875 94.617188 68.050781 85.242188 C 69.066406 82.195312 70.242188 77.4375 71.363281 72.40625 C 69.914062 71.375 68.917969 73.003906 67.679688 74.1875 Z M 67.679688 74.1875 "/>
<path style=" stroke:none;fill-rule:evenodd;fill:rgb(73.724365%,73.724365%,73.724365%);fill-opacity:1;" d="M 91.148438 63.714844 C 91.058594 63.523438 91.472656 63.476562 90.8125 63.648438 C 90.445312 63.742188 90.011719 63.820312 89.632812 63.777344 C 88.945312 63.699219 88.191406 63.601562 87.601562 63.066406 C 86.964844 62.488281 86.089844 60.898438 85.40625 61.707031 C 84.6875 62.558594 84.011719 63.335938 83.304688 63.875 C 85.839844 67.632812 86.167969 76.164062 91.449219 74.304688 C 94.441406 73.253906 94.316406 69.011719 92.640625 64.777344 C 92.089844 64.804688 91.527344 64.5 91.148438 63.714844 Z M 91.148438 63.714844 "/>
<path style=" stroke:none;fill-rule:evenodd;fill:rgb(73.724365%,73.724365%,73.724365%);fill-opacity:1;" d="M 22.039062 42.292969 C 22.082031 40.007812 22.34375 37.628906 23.878906 36.203125 C 24.574219 35.554688 25.433594 35.132812 26.300781 35.140625 C 26.460938 35.140625 26.625 35.152344 26.789062 35.164062 C 26.816406 35.097656 26.847656 35.027344 26.886719 34.945312 C 26.917969 34.792969 26.949219 34.636719 26.976562 34.484375 C 27.292969 32.511719 27.492188 30.632812 28.660156 29.164062 C 30.136719 27.3125 32.269531 27.625 33.992188 28.53125 C 34.433594 28.765625 35.914062 29.714844 36.285156 28.859375 C 36.660156 28.003906 36.835938 27.039062 37.1875 26.167969 C 38.699219 22.417969 41.085938 21.171875 43.933594 23.527344 C 44.550781 24.03125 45.988281 25.738281 46.792969 25.402344 C 47.871094 24.953125 48.199219 22.628906 49.226562 21.820312 C 50.792969 20.582031 52.910156 20.554688 54.402344 21.992188 C 55.363281 22.921875 56.609375 26.15625 58.070312 25.367188 C 59.714844 24.480469 61.398438 22.898438 63.292969 23.769531 C 64.84375 24.480469 65.765625 25.90625 66.507812 27.761719 C 66.734375 28.316406 67.171875 30.085938 67.691406 30.273438 C 68.441406 30.546875 69.25 30.425781 70.019531 30.386719 C 71.40625 30.3125 72.75 30.652344 73.527344 32.320312 C 74.390625 34.179688 74.5625 36.488281 75.507812 38.285156 C 75.800781 38.839844 76.234375 39.132812 76.71875 39.289062 C 76.097656 19.871094 63.800781 4.378906 48.714844 4.378906 C 33.234375 4.378906 20.6875 20.699219 20.6875 40.832031 C 20.6875 42.328125 20.765625 43.804688 20.898438 45.253906 C 22.285156 45.304688 22 44.285156 22.039062 42.292969 Z M 22.039062 42.292969 "/>
<path style=" stroke:none;fill-rule:evenodd;fill:rgb(43.920898%,31.764221%,36.077881%);fill-opacity:1;" d="M 90.300781 75.992188 C 90.511719 75.996094 90.882812 73.441406 90.285156 73.179688 C 89.691406 72.921875 90.089844 75.988281 90.300781 75.992188 Z M 90.300781 75.992188 "/>
<path style=" stroke:none;fill-rule:evenodd;fill:rgb(43.920898%,31.764221%,36.077881%);fill-opacity:1;" d="M 91.742188 75.589844 C 91.953125 75.59375 92.324219 73.039062 91.726562 72.78125 C 91.132812 72.519531 91.53125 75.585938 91.742188 75.589844 Z M 91.742188 75.589844 "/>
<path style=" stroke:none;fill-rule:evenodd;fill:rgb(43.920898%,31.764221%,36.077881%);fill-opacity:1;" d="M 92.988281 74.578125 C 93.195312 74.582031 93.566406 72.03125 92.96875 71.769531 C 92.375 71.511719 92.773438 74.578125 92.988281 74.578125 Z M 92.988281 74.578125 "/>
<path style=" stroke:none;fill-rule:evenodd;fill:rgb(23.921204%,23.921204%,23.921204%);fill-opacity:1;" d="M 46.453125 41.660156 C 46.453125 47.039062 43.101562 51.398438 38.964844 51.398438 C 34.828125 51.398438 31.476562 47.039062 31.476562 41.660156 C 31.476562 36.28125 34.828125 31.925781 38.964844 31.925781 C 43.101562 31.921875 46.453125 36.28125 46.453125 41.660156 Z M 46.453125 41.660156 "/>
<path style=" stroke:none;fill-rule:evenodd;fill:rgb(11.764526%,11.764526%,11.764526%);fill-opacity:1;" d="M 46.117188 43.375 C 46.117188 48.242188 43.085938 52.1875 39.34375 52.1875 C 35.601562 52.1875 32.566406 48.242188 32.566406 43.375 C 32.566406 38.511719 35.601562 34.5625 39.34375 34.5625 C 43.085938 34.5625 46.117188 38.511719 46.117188 43.375 Z M 46.117188 43.375 "/>
<path style=" stroke:none;fill-rule:evenodd;fill:rgb(23.921204%,23.921204%,23.921204%);fill-opacity:1;" d="M 49.292969 41.015625 C 49.292969 47.253906 53.183594 52.3125 57.980469 52.3125 C 62.78125 52.3125 66.667969 47.253906 66.667969 41.015625 C 66.667969 34.777344 62.78125 29.71875 57.980469 29.71875 C 53.183594 29.71875 49.292969 34.777344 49.292969 41.015625 Z M 49.292969 41.015625 "/>
<path style=" stroke:none;fill-rule:evenodd;fill:rgb(11.764526%,11.764526%,11.764526%);fill-opacity:1;" d="M 49.683594 43.003906 C 49.683594 48.652344 53.203125 53.230469 57.542969 53.230469 C 61.886719 53.230469 65.40625 48.652344 65.40625 43.003906 C 65.40625 37.359375 61.886719 32.785156 57.542969 32.785156 C 53.203125 32.785156 49.683594 37.359375 49.683594 43.003906 Z M 49.683594 43.003906 "/>
<path style=" stroke:none;fill-rule:evenodd;fill:rgb(99.998474%,99.998474%,99.998474%);fill-opacity:1;" d="M 46.046875 44 C 46.046875 48.710938 43.109375 52.53125 39.488281 52.53125 C 35.867188 52.53125 32.929688 48.710938 32.929688 44 C 32.929688 39.289062 35.867188 35.472656 39.488281 35.472656 C 43.109375 35.472656 46.046875 39.289062 46.046875 44 Z M 46.046875 44 "/>
<path style=" stroke:none;fill-rule:evenodd;fill:rgb(31.764221%,23.529053%,19.999695%);fill-opacity:1;" d="M 41.285156 44 C 41.285156 45.292969 40.480469 46.339844 39.488281 46.339844 C 38.492188 46.339844 37.6875 45.292969 37.6875 44 C 37.6875 42.707031 38.492188 41.660156 39.488281 41.660156 C 40.480469 41.660156 41.285156 42.707031 41.285156 44 Z M 41.285156 44 "/>
<path style=" stroke:none;fill-rule:evenodd;fill:rgb(99.998474%,99.998474%,99.998474%);fill-opacity:1;" d="M 64.507812 44 C 64.507812 49.210938 61.257812 53.4375 57.25 53.4375 C 53.242188 53.4375 49.992188 49.210938 49.992188 44 C 49.992188 38.789062 53.242188 34.566406 57.25 34.566406 C 61.257812 34.566406 64.507812 38.789062 64.507812 44 Z M 64.507812 44 "/>
<path style=" stroke:none;fill-rule:evenodd;fill:rgb(31.764221%,23.529053%,19.999695%);fill-opacity:1;" d="M 59.050781 44 C 59.050781 45.292969 58.242188 46.339844 57.25 46.339844 C 56.257812 46.339844 55.449219 45.292969 55.449219 44 C 55.449219 42.707031 56.257812 41.660156 57.25 41.660156 C 58.242188 41.660156 59.050781 42.707031 59.050781 44 Z M 59.050781 44 "/>
<path style=" stroke:none;fill-rule:evenodd;fill:rgb(23.921204%,23.921204%,23.921204%);fill-opacity:1;" d="M 62.824219 59.285156 C 62.824219 60.183594 62.265625 60.910156 61.574219 60.910156 L 34.929688 60.910156 C 34.238281 60.910156 33.679688 60.183594 33.679688 59.285156 C 33.679688 58.390625 34.238281 57.664062 34.929688 57.664062 L 61.574219 57.664062 C 62.265625 57.664062 62.824219 58.390625 62.824219 59.285156 Z M 62.824219 59.285156 "/>
<path style=" stroke:none;fill-rule:evenodd;fill:rgb(99.998474%,99.998474%,99.998474%);fill-opacity:1;" d="M 36.550781 57.664062 C 36.550781 57.664062 36.582031 60.195312 37.132812 61.964844 C 37.683594 63.742188 38.84375 64.644531 38.929688 64.15625 C 39.015625 63.664062 38.378906 62.742188 38.292969 60.976562 C 38.207031 59.210938 38.757812 57.664062 38.757812 57.664062 Z M 36.550781 57.664062 "/>
<path style=" stroke:none;fill-rule:evenodd;fill:rgb(99.998474%,99.998474%,99.998474%);fill-opacity:1;" d="M 58.800781 57.664062 C 58.800781 57.664062 58.773438 60.195312 58.222656 61.964844 C 57.671875 63.742188 56.507812 64.644531 56.421875 64.15625 C 56.335938 63.664062 56.976562 62.742188 57.0625 60.976562 C 57.148438 59.210938 56.597656 57.664062 56.597656 57.664062 Z M 58.800781 57.664062 "/>
</g>
</svg>
