<?xml version="1.0" encoding="UTF-8"?>
<svg xmlns="http://www.w3.org/2000/svg" xmlns:xlink="http://www.w3.org/1999/xlink" width="86pt" height="87pt" viewBox="0 0 86 87" version="1.1">
<g id="surface273">
<path style=" stroke:none;fill-rule:evenodd;fill:rgb(59.999084%,59.999084%,59.999084%);fill-opacity:1;" d="M 81.035156 56.832031 C 81.796875 44.0625 81.484375 14.257812 51.742188 12.996094 C 16.820312 11.511719 17.230469 41.824219 18.054688 53.683594 C 18.117188 54.582031 18.191406 55.535156 18.269531 56.527344 C 16.417969 59.0625 11.675781 66.066406 14.019531 68.164062 C 15.710938 69.671875 17.714844 67.261719 19.085938 65 C 20.304688 75.652344 22.367188 86.796875 25.46875 86.8125 C 29.75 86.835938 27.609375 81.027344 27.609375 81.027344 C 27.609375 81.027344 35.023438 83.167969 47.707031 83.003906 C 60.390625 82.839844 71.757812 81.027344 71.757812 81.027344 C 71.757812 81.027344 70.933594 85.96875 74.554688 86.792969 C 77.601562 87.488281 79.640625 73.8125 80.398438 65.636719 C 81.746094 67.675781 83.535156 69.53125 85.066406 68.164062 C 87.324219 66.144531 83.015625 59.582031 81.035156 56.832031 Z M 81.035156 56.832031 "/>
<path style=" stroke:none;fill-rule:evenodd;fill:rgb(34.901428%,34.901428%,34.901428%);fill-opacity:1;" d="M 45.175781 46.277344 C 45.175781 52.789062 40.289062 58.070312 34.257812 58.070312 C 28.230469 58.070312 23.34375 52.789062 23.34375 46.277344 C 23.34375 39.761719 28.230469 34.484375 34.257812 34.484375 C 40.289062 34.484375 45.175781 39.761719 45.175781 46.277344 Z M 45.175781 46.277344 "/>
<path style=" stroke:none;fill-rule:evenodd;fill:rgb(0%,0%,0%);fill-opacity:1;" d="M 44.25 47.152344 C 44.25 52.671875 39.777344 57.140625 34.257812 57.140625 C 28.742188 57.140625 24.269531 52.671875 24.269531 47.152344 C 24.269531 41.636719 28.742188 37.160156 34.257812 37.160156 C 39.777344 37.160156 44.25 41.636719 44.25 47.152344 Z M 44.25 47.152344 "/>
<path style=" stroke:none;fill-rule:evenodd;fill:rgb(97.645569%,98.822021%,99.214172%);fill-opacity:1;" d="M 42.847656 47.933594 C 42.847656 53.019531 38.726562 57.140625 33.640625 57.140625 C 28.554688 57.140625 24.433594 53.019531 24.433594 47.933594 C 24.433594 42.847656 28.554688 38.726562 33.640625 38.726562 C 38.726562 38.726562 42.847656 42.847656 42.847656 47.933594 Z M 42.847656 47.933594 "/>
<path style=" stroke:none;fill-rule:evenodd;fill:rgb(2.745056%,2.745056%,2.745056%);fill-opacity:1;" d="M 33.492188 43.824219 C 32.546875 43.824219 31.679688 44.144531 30.984375 44.679688 C 31.03125 44.675781 31.074219 44.667969 31.121094 44.667969 C 32.085938 44.667969 32.867188 45.445312 32.867188 46.410156 C 32.867188 47.371094 32.085938 48.152344 31.121094 48.152344 C 30.367188 48.152344 29.730469 47.671875 29.488281 47.003906 C 29.417969 47.300781 29.378906 47.613281 29.378906 47.933594 C 29.378906 48.445312 29.476562 48.933594 29.648438 49.386719 C 29.765625 48.8125 30.273438 48.382812 30.878906 48.382812 C 31.578125 48.382812 32.144531 48.949219 32.144531 49.644531 C 32.144531 50.34375 31.578125 50.90625 30.878906 50.90625 C 30.792969 50.90625 30.707031 50.898438 30.621094 50.882812 C 31.363281 51.601562 32.375 52.046875 33.488281 52.046875 C 35.761719 52.046875 37.601562 50.207031 37.601562 47.9375 C 37.601562 45.664062 35.761719 43.824219 33.492188 43.824219 Z M 33.492188 43.824219 "/>
<path style=" stroke:none;fill-rule:evenodd;fill:rgb(34.901428%,34.901428%,34.901428%);fill-opacity:1;" d="M 51.5 46.277344 C 51.5 52.789062 56.386719 58.070312 62.417969 58.070312 C 68.445312 58.070312 73.332031 52.789062 73.332031 46.277344 C 73.332031 39.761719 68.445312 34.484375 62.417969 34.484375 C 56.386719 34.484375 51.5 39.761719 51.5 46.277344 Z M 51.5 46.277344 "/>
<path style=" stroke:none;fill-rule:evenodd;fill:rgb(0%,0%,0%);fill-opacity:1;" d="M 52.425781 47.152344 C 52.425781 52.671875 56.898438 57.140625 62.417969 57.140625 C 67.933594 57.140625 72.40625 52.671875 72.40625 47.152344 C 72.40625 41.636719 67.933594 37.160156 62.417969 37.160156 C 56.898438 37.160156 52.425781 41.636719 52.425781 47.152344 Z M 52.425781 47.152344 "/>
<path style=" stroke:none;fill-rule:evenodd;fill:rgb(97.645569%,98.822021%,99.214172%);fill-opacity:1;" d="M 53.828125 47.933594 C 53.828125 53.019531 57.949219 57.140625 63.035156 57.140625 C 68.121094 57.140625 72.242188 53.019531 72.242188 47.933594 C 72.242188 42.847656 68.121094 38.726562 63.035156 38.726562 C 57.949219 38.726562 53.828125 42.847656 53.828125 47.933594 Z M 53.828125 47.933594 "/>
<path style=" stroke:none;fill-rule:evenodd;fill:rgb(2.745056%,2.745056%,2.745056%);fill-opacity:1;" d="M 63.183594 43.824219 C 64.128906 43.824219 64.996094 44.144531 65.691406 44.679688 C 65.644531 44.675781 65.597656 44.667969 65.550781 44.667969 C 64.589844 44.667969 63.808594 45.445312 63.808594 46.410156 C 63.808594 47.371094 64.589844 48.152344 65.550781 48.152344 C 66.304688 48.152344 66.941406 47.671875 67.1875 47.003906 C 67.253906 47.300781 67.296875 47.613281 67.296875 47.933594 C 67.296875 48.445312 67.199219 48.933594 67.027344 49.386719 C 66.90625 48.8125 66.402344 48.382812 65.792969 48.382812 C 65.09375 48.382812 64.53125 48.949219 64.53125 49.644531 C 64.53125 50.34375 65.09375 50.90625 65.792969 50.90625 C 65.882812 50.90625 65.96875 50.898438 66.050781 50.882812 C 65.308594 51.601562 64.300781 52.046875 63.183594 52.046875 C 60.914062 52.046875 59.070312 50.207031 59.070312 47.9375 C 59.070312 45.664062 60.914062 43.824219 63.183594 43.824219 Z M 63.183594 43.824219 "/>
<path style=" stroke:none;fill-rule:evenodd;fill:rgb(0%,0%,0%);fill-opacity:1;" d="M 72.753906 33.203125 L 71.738281 32.679688 L 72.183594 31.902344 C 72.265625 31.757812 72.214844 31.566406 72.066406 31.484375 C 71.917969 31.394531 71.730469 31.449219 71.648438 31.597656 L 71.1875 32.398438 L 70.21875 31.898438 L 70.796875 30.890625 C 70.882812 30.746094 70.832031 30.554688 70.683594 30.46875 C 70.535156 30.382812 70.34375 30.4375 70.261719 30.582031 L 69.667969 31.617188 L 68.441406 30.984375 L 69.050781 29.917969 C 69.136719 29.769531 69.085938 29.582031 68.941406 29.496094 C 68.789062 29.410156 68.601562 29.460938 68.515625 29.613281 L 67.890625 30.703125 L 66.542969 30.011719 L 67.117188 29.011719 C 67.199219 28.863281 67.148438 28.675781 67.003906 28.589844 C 66.851562 28.507812 66.664062 28.554688 66.582031 28.703125 L 65.996094 29.726562 L 64.621094 29.019531 L 65.179688 28.042969 C 65.265625 27.894531 65.214844 27.707031 65.066406 27.621094 C 64.917969 27.535156 64.726562 27.585938 64.644531 27.738281 L 64.070312 28.738281 L 62.859375 28.113281 L 63.378906 27.214844 C 63.460938 27.0625 63.410156 26.878906 63.261719 26.789062 C 63.113281 26.707031 62.925781 26.757812 62.839844 26.90625 L 62.308594 27.832031 L 61.429688 27.378906 L 62.015625 26.359375 C 62.101562 26.207031 62.050781 26.019531 61.902344 25.933594 C 61.753906 25.851562 61.566406 25.902344 61.480469 26.050781 L 60.878906 27.09375 L 60.273438 26.785156 C 60.121094 26.707031 59.933594 26.765625 59.859375 26.917969 C 59.777344 27.070312 59.839844 27.257812 59.992188 27.332031 L 60.574219 27.632812 L 60.09375 28.464844 C 60.011719 28.613281 60.0625 28.800781 60.207031 28.886719 C 60.257812 28.914062 60.3125 28.925781 60.363281 28.925781 C 60.46875 28.925781 60.574219 28.871094 60.628906 28.773438 L 61.121094 27.914062 L 62.003906 28.367188 L 61.457031 29.320312 C 61.371094 29.46875 61.421875 29.65625 61.570312 29.742188 C 61.621094 29.769531 61.671875 29.78125 61.722656 29.78125 C 61.828125 29.78125 61.933594 29.726562 61.992188 29.628906 L 62.550781 28.652344 L 63.761719 29.273438 L 63.257812 30.152344 C 63.171875 30.300781 63.226562 30.488281 63.371094 30.574219 C 63.421875 30.601562 63.476562 30.613281 63.527344 30.613281 C 63.632812 30.613281 63.734375 30.558594 63.792969 30.460938 L 64.3125 29.558594 L 65.6875 30.261719 L 65.195312 31.117188 C 65.109375 31.265625 65.160156 31.453125 65.308594 31.542969 C 65.355469 31.570312 65.410156 31.582031 65.464844 31.582031 C 65.570312 31.582031 65.675781 31.527344 65.730469 31.425781 L 66.238281 30.542969 L 67.585938 31.238281 L 67.132812 32.027344 C 67.046875 32.171875 67.097656 32.363281 67.246094 32.449219 C 67.292969 32.476562 67.347656 32.488281 67.398438 32.488281 C 67.507812 32.488281 67.609375 32.433594 67.667969 32.335938 L 68.132812 31.519531 L 69.359375 32.152344 L 68.875 32.996094 C 68.789062 33.144531 68.839844 33.335938 68.992188 33.421875 C 69.039062 33.449219 69.089844 33.460938 69.140625 33.460938 C 69.25 33.460938 69.355469 33.40625 69.410156 33.304688 L 69.910156 32.433594 L 70.878906 32.933594 L 70.261719 34.011719 C 70.175781 34.160156 70.226562 34.347656 70.375 34.433594 C 70.421875 34.460938 70.476562 34.476562 70.527344 34.476562 C 70.636719 34.476562 70.738281 34.417969 70.796875 34.316406 L 71.429688 33.214844 L 72.472656 33.753906 C 72.519531 33.777344 72.566406 33.785156 72.613281 33.785156 C 72.726562 33.785156 72.832031 33.726562 72.886719 33.617188 C 72.964844 33.46875 72.90625 33.28125 72.753906 33.203125 Z M 72.753906 33.203125 "/>
<path style=" stroke:none;fill-rule:evenodd;fill:rgb(97.645569%,98.822021%,99.214172%);fill-opacity:1;" d="M 33.871094 65.203125 C 33.871094 65.203125 34.191406 67.585938 35.960938 71.089844 C 37.734375 74.589844 39.511719 75.230469 39.742188 74.855469 C 39.976562 74.484375 38.507812 73.320312 38.507812 70.933594 C 38.507812 68.542969 39.28125 65.203125 39.28125 65.203125 Z M 33.871094 65.203125 "/>
<path style=" stroke:none;fill-rule:evenodd;fill:rgb(97.645569%,98.822021%,99.214172%);fill-opacity:1;" d="M 67.4375 65.203125 C 67.4375 65.203125 67.121094 67.585938 65.347656 71.089844 C 63.578125 74.589844 61.800781 75.230469 61.566406 74.855469 C 61.335938 74.484375 62.804688 73.320312 62.804688 70.933594 C 62.804688 68.542969 62.03125 65.203125 62.03125 65.203125 Z M 67.4375 65.203125 "/>
<path style=" stroke:none;fill-rule:evenodd;fill:rgb(0%,0%,0%);fill-opacity:1;" d="M 72.03125 65.203125 C 72.03125 65.414062 71.859375 65.585938 71.648438 65.585938 L 29.625 65.585938 C 29.410156 65.585938 29.238281 65.414062 29.238281 65.203125 C 29.238281 64.988281 29.410156 64.816406 29.625 64.816406 L 71.648438 64.816406 C 71.859375 64.816406 72.03125 64.988281 72.03125 65.203125 Z M 72.03125 65.203125 "/>
</g>
</svg>
