<?xml version="1.0" encoding="UTF-8"?>
<svg xmlns="http://www.w3.org/2000/svg" xmlns:xlink="http://www.w3.org/1999/xlink" width="86pt" height="87pt" viewBox="0 0 86 87" version="1.1">
<g id="surface301">
<path style=" stroke:none;fill-rule:evenodd;fill:rgb(99.998474%,59.214783%,0%);fill-opacity:1;" d="M 81.039062 56.832031 C 81.796875 44.066406 81.488281 14.257812 51.742188 12.996094 C 16.824219 11.511719 17.234375 41.824219 18.058594 53.683594 C 18.121094 54.582031 18.191406 55.535156 18.269531 56.527344 C 16.421875 59.0625 11.675781 66.070312 14.023438 68.164062 C 15.710938 69.671875 17.714844 67.261719 19.089844 65.003906 C 20.304688 75.652344 22.367188 86.800781 25.472656 86.8125 C 29.75 86.835938 27.613281 81.027344 27.613281 81.027344 C 27.613281 81.027344 35.023438 83.171875 47.707031 83.003906 C 60.390625 82.839844 71.757812 81.027344 71.757812 81.027344 C 71.757812 81.027344 70.933594 85.96875 74.558594 86.792969 C 77.605469 87.488281 79.640625 73.8125 80.402344 65.636719 C 81.746094 67.679688 83.535156 69.53125 85.066406 68.164062 C 87.324219 66.144531 83.011719 59.582031 81.039062 56.832031 Z M 81.039062 56.832031 "/>
<path style=" stroke:none;fill-rule:evenodd;fill:rgb(65.881348%,38.430786%,1.568604%);fill-opacity:1;" d="M 45.175781 46.277344 C 45.175781 52.792969 40.289062 58.070312 34.261719 58.070312 C 28.230469 58.070312 23.34375 52.792969 23.34375 46.277344 C 23.34375 39.765625 28.230469 34.484375 34.261719 34.484375 C 40.289062 34.484375 45.175781 39.765625 45.175781 46.277344 Z M 45.175781 46.277344 "/>
<path style=" stroke:none;fill-rule:evenodd;fill:rgb(35.68573%,20.783997%,0.784302%);fill-opacity:1;" d="M 44.25 47.152344 C 44.25 52.671875 39.777344 57.144531 34.261719 57.144531 C 28.742188 57.144531 24.269531 52.671875 24.269531 47.152344 C 24.269531 41.636719 28.742188 37.164062 34.261719 37.164062 C 39.777344 37.164062 44.25 41.636719 44.25 47.152344 Z M 44.25 47.152344 "/>
<path style=" stroke:none;fill-rule:evenodd;fill:rgb(97.645569%,98.822021%,99.214172%);fill-opacity:1;" d="M 42.847656 47.9375 C 42.847656 53.023438 38.726562 57.144531 33.644531 57.144531 C 28.558594 57.144531 24.4375 53.023438 24.4375 47.9375 C 24.4375 42.851562 28.558594 38.730469 33.644531 38.730469 C 38.726562 38.730469 42.847656 42.851562 42.847656 47.9375 Z M 42.847656 47.9375 "/>
<path style=" stroke:none;fill-rule:evenodd;fill:rgb(2.745056%,2.745056%,2.745056%);fill-opacity:1;" d="M 33.492188 43.824219 C 32.546875 43.824219 31.683594 44.144531 30.984375 44.679688 C 31.03125 44.675781 31.078125 44.667969 31.121094 44.667969 C 32.085938 44.667969 32.867188 45.449219 32.867188 46.414062 C 32.867188 47.375 32.085938 48.15625 31.121094 48.15625 C 30.371094 48.15625 29.730469 47.671875 29.488281 47.003906 C 29.421875 47.304688 29.378906 47.613281 29.378906 47.9375 C 29.378906 48.449219 29.476562 48.933594 29.648438 49.386719 C 29.765625 48.816406 30.273438 48.386719 30.882812 48.386719 C 31.578125 48.386719 32.144531 48.949219 32.144531 49.648438 C 32.144531 50.34375 31.578125 50.910156 30.882812 50.910156 C 30.792969 50.910156 30.707031 50.898438 30.625 50.882812 C 31.363281 51.605469 32.378906 52.046875 33.492188 52.046875 C 35.761719 52.046875 37.605469 50.210938 37.605469 47.9375 C 37.605469 45.667969 35.761719 43.824219 33.492188 43.824219 Z M 33.492188 43.824219 "/>
<path style=" stroke:none;fill-rule:evenodd;fill:rgb(65.881348%,38.430786%,1.568604%);fill-opacity:1;" d="M 51.5 46.277344 C 51.5 52.792969 56.386719 58.070312 62.417969 58.070312 C 68.445312 58.070312 73.335938 52.792969 73.335938 46.277344 C 73.335938 39.765625 68.445312 34.484375 62.417969 34.484375 C 56.386719 34.484375 51.5 39.765625 51.5 46.277344 Z M 51.5 46.277344 "/>
<path style=" stroke:none;fill-rule:evenodd;fill:rgb(35.68573%,20.783997%,0.784302%);fill-opacity:1;" d="M 52.425781 47.152344 C 52.425781 52.671875 56.898438 57.144531 62.417969 57.144531 C 67.933594 57.144531 72.40625 52.671875 72.40625 47.152344 C 72.40625 41.636719 67.933594 37.164062 62.417969 37.164062 C 56.898438 37.164062 52.425781 41.636719 52.425781 47.152344 Z M 52.425781 47.152344 "/>
<path style=" stroke:none;fill-rule:evenodd;fill:rgb(97.645569%,98.822021%,99.214172%);fill-opacity:1;" d="M 53.828125 47.9375 C 53.828125 53.023438 57.949219 57.144531 63.035156 57.144531 C 68.121094 57.144531 72.242188 53.023438 72.242188 47.9375 C 72.242188 42.851562 68.121094 38.730469 63.035156 38.730469 C 57.949219 38.730469 53.828125 42.851562 53.828125 47.9375 Z M 53.828125 47.9375 "/>
<path style=" stroke:none;fill-rule:evenodd;fill:rgb(2.745056%,2.745056%,2.745056%);fill-opacity:1;" d="M 63.183594 43.824219 C 64.128906 43.824219 64.996094 44.144531 65.691406 44.679688 C 65.644531 44.675781 65.601562 44.667969 65.554688 44.667969 C 64.589844 44.667969 63.808594 45.449219 63.808594 46.414062 C 63.808594 47.375 64.589844 48.15625 65.554688 48.15625 C 66.308594 48.15625 66.945312 47.671875 67.1875 47.003906 C 67.257812 47.304688 67.296875 47.613281 67.296875 47.9375 C 67.296875 48.449219 67.199219 48.933594 67.027344 49.386719 C 66.910156 48.816406 66.402344 48.386719 65.792969 48.386719 C 65.097656 48.386719 64.53125 48.949219 64.53125 49.648438 C 64.53125 50.34375 65.097656 50.910156 65.792969 50.910156 C 65.882812 50.910156 65.96875 50.898438 66.054688 50.882812 C 65.3125 51.605469 64.300781 52.046875 63.183594 52.046875 C 60.914062 52.046875 59.074219 50.210938 59.074219 47.9375 C 59.074219 45.667969 60.914062 43.824219 63.183594 43.824219 Z M 63.183594 43.824219 "/>
<path style=" stroke:none;fill-rule:evenodd;fill:rgb(43.528748%,65.881348%,19.999695%);fill-opacity:1;" d="M 72.757812 33.203125 L 71.738281 32.679688 L 72.183594 31.902344 C 72.269531 31.757812 72.21875 31.566406 72.070312 31.484375 C 71.917969 31.398438 71.730469 31.449219 71.644531 31.597656 L 71.1875 32.398438 L 70.21875 31.898438 L 70.796875 30.894531 C 70.882812 30.746094 70.828125 30.554688 70.683594 30.46875 C 70.535156 30.386719 70.347656 30.4375 70.261719 30.585938 L 69.667969 31.617188 L 68.441406 30.988281 L 69.054688 29.921875 C 69.140625 29.773438 69.085938 29.585938 68.9375 29.496094 C 68.792969 29.414062 68.601562 29.464844 68.515625 29.613281 L 67.890625 30.703125 L 66.546875 30.011719 L 67.117188 29.015625 C 67.203125 28.867188 67.152344 28.679688 67.003906 28.589844 C 66.855469 28.507812 66.664062 28.558594 66.582031 28.703125 L 65.996094 29.726562 L 64.621094 29.019531 L 65.179688 28.046875 C 65.265625 27.898438 65.214844 27.710938 65.066406 27.625 C 64.917969 27.539062 64.730469 27.589844 64.644531 27.738281 L 64.070312 28.738281 L 62.863281 28.117188 L 63.378906 27.214844 C 63.460938 27.066406 63.410156 26.878906 63.265625 26.792969 C 63.117188 26.707031 62.929688 26.757812 62.84375 26.90625 L 62.3125 27.832031 L 61.429688 27.382812 L 62.019531 26.359375 C 62.101562 26.210938 62.050781 26.023438 61.90625 25.9375 C 61.753906 25.851562 61.566406 25.902344 61.480469 26.050781 L 60.882812 27.097656 L 60.277344 26.785156 C 60.121094 26.707031 59.9375 26.769531 59.859375 26.917969 C 59.78125 27.074219 59.839844 27.257812 59.992188 27.335938 L 60.574219 27.632812 L 60.097656 28.464844 C 60.011719 28.613281 60.0625 28.800781 60.210938 28.886719 C 60.261719 28.914062 60.3125 28.929688 60.363281 28.929688 C 60.46875 28.929688 60.574219 28.871094 60.632812 28.773438 L 61.125 27.917969 L 62.003906 28.367188 L 61.457031 29.324219 C 61.375 29.46875 61.421875 29.660156 61.570312 29.742188 C 61.621094 29.769531 61.671875 29.785156 61.726562 29.785156 C 61.832031 29.785156 61.9375 29.730469 61.992188 29.628906 L 62.554688 28.652344 L 63.765625 29.273438 L 63.261719 30.152344 C 63.175781 30.300781 63.226562 30.488281 63.375 30.574219 C 63.421875 30.605469 63.476562 30.617188 63.527344 30.617188 C 63.632812 30.617188 63.738281 30.558594 63.796875 30.460938 L 64.316406 29.558594 L 65.6875 30.261719 L 65.195312 31.121094 C 65.113281 31.269531 65.164062 31.457031 65.308594 31.542969 C 65.359375 31.570312 65.410156 31.582031 65.464844 31.582031 C 65.570312 31.582031 65.675781 31.527344 65.734375 31.425781 L 66.238281 30.546875 L 67.585938 31.238281 L 67.132812 32.027344 C 67.046875 32.171875 67.097656 32.363281 67.246094 32.449219 C 67.292969 32.476562 67.347656 32.492188 67.402344 32.492188 C 67.507812 32.492188 67.613281 32.433594 67.667969 32.335938 L 68.132812 31.523438 L 69.363281 32.152344 L 68.875 33 C 68.792969 33.148438 68.84375 33.335938 68.992188 33.421875 C 69.039062 33.449219 69.089844 33.464844 69.144531 33.464844 C 69.253906 33.464844 69.355469 33.40625 69.410156 33.304688 L 69.914062 32.4375 L 70.882812 32.933594 L 70.261719 34.011719 C 70.175781 34.160156 70.226562 34.347656 70.375 34.433594 C 70.425781 34.460938 70.476562 34.476562 70.527344 34.476562 C 70.636719 34.476562 70.742188 34.421875 70.796875 34.320312 L 71.429688 33.21875 L 72.472656 33.753906 C 72.519531 33.777344 72.566406 33.785156 72.613281 33.785156 C 72.726562 33.785156 72.835938 33.726562 72.890625 33.621094 C 72.964844 33.46875 72.90625 33.28125 72.757812 33.203125 Z M 72.757812 33.203125 "/>
<path style=" stroke:none;fill-rule:evenodd;fill:rgb(97.645569%,98.822021%,99.214172%);fill-opacity:1;" d="M 33.875 65.203125 C 33.875 65.203125 34.191406 67.589844 35.964844 71.089844 C 37.738281 74.59375 39.511719 75.230469 39.746094 74.859375 C 39.976562 74.484375 38.511719 73.320312 38.511719 70.933594 C 38.511719 68.546875 39.28125 65.203125 39.28125 65.203125 Z M 33.875 65.203125 "/>
<path style=" stroke:none;fill-rule:evenodd;fill:rgb(97.645569%,98.822021%,99.214172%);fill-opacity:1;" d="M 67.441406 65.203125 C 67.441406 65.203125 67.125 67.589844 65.351562 71.089844 C 63.578125 74.59375 61.800781 75.230469 61.570312 74.859375 C 61.335938 74.484375 62.804688 73.320312 62.804688 70.933594 C 62.804688 68.546875 62.03125 65.203125 62.03125 65.203125 Z M 67.441406 65.203125 "/>
<path style=" stroke:none;fill-rule:evenodd;fill:rgb(35.68573%,20.783997%,0.784302%);fill-opacity:1;" d="M 72.03125 65.203125 C 72.03125 65.417969 71.859375 65.589844 71.644531 65.589844 L 29.625 65.589844 C 29.410156 65.589844 29.238281 65.417969 29.238281 65.203125 C 29.238281 64.992188 29.410156 64.816406 29.625 64.816406 L 71.644531 64.816406 C 71.859375 64.816406 72.03125 64.988281 72.03125 65.203125 Z M 72.03125 65.203125 "/>
</g>
</svg>
