<?xml version="1.0" encoding="UTF-8"?>
<svg xmlns="http://www.w3.org/2000/svg" xmlns:xlink="http://www.w3.org/1999/xlink" width="87pt" height="97pt" viewBox="0 0 87 97" version="1.1">
<g id="surface315">
<path style=" stroke:none;fill-rule:evenodd;fill:rgb(51.763916%,58.822632%,84.70459%);fill-opacity:1;" d="M 77.660156 89.882812 C 76.328125 89.882812 77.660156 75.472656 77.660156 67.707031 C 77.660156 64.242188 76.574219 62.019531 75.378906 60.613281 C 76.574219 56.382812 77.824219 50.746094 78.140625 44.796875 C 82.789062 43.277344 86.160156 38.90625 86.160156 33.753906 C 86.160156 27.351562 80.949219 22.140625 74.542969 22.140625 C 73.796875 22.140625 73.070312 22.214844 72.359375 22.347656 C 69.964844 19.296875 66.703125 16.683594 62.316406 14.78125 C 59.59375 13.597656 56.996094 12.773438 54.519531 12.253906 C 54.714844 11.382812 55.058594 10.417969 55.644531 9.476562 C 57.460938 6.574219 61.289062 7.367188 58.828125 6.523438 C 56.371094 5.675781 52.183594 9.152344 52.183594 9.152344 C 52.183594 9.152344 50.847656 6.484375 52.046875 4.34375 C 53.25 2.210938 54.410156 3.34375 54.230469 2.40625 C 54.046875 1.464844 49.363281 2.046875 47.433594 4.210938 C 45.667969 6.199219 46.214844 9.425781 46.320312 9.960938 C 46.25 9.648438 45.890625 8.441406 44.488281 7.515625 C 42.867188 6.4375 39.945312 5.992188 39.199219 7.148438 C 38.453125 8.308594 40.328125 8.347656 41.511719 9.277344 C 42.558594 10.101562 42.550781 11.808594 42.539062 12.179688 C 36.457031 13.542969 31.570312 17.066406 27.953125 21.609375 C 26.847656 21.261719 25.675781 21.070312 24.457031 21.070312 C 18.050781 21.070312 12.839844 26.28125 12.839844 32.6875 C 12.839844 37.679688 16.011719 41.949219 20.445312 43.585938 C 20.496094 49.804688 21.5 55.523438 22.910156 60.339844 C 21.988281 61.746094 21.261719 63.75 21.261719 66.585938 C 21.261719 74.347656 22.589844 88.761719 21.261719 88.761719 C 19.933594 88.761719 16.160156 87.097656 15.496094 90.316406 C 14.828125 93.53125 16.714844 93.863281 16.9375 92.972656 C 17.160156 92.085938 17.601562 90.535156 18.933594 90.867188 C 20.261719 91.199219 17.714844 95.746094 20.375 95.523438 C 23.035156 95.304688 20.449219 90.964844 21.886719 90.964844 C 23.332031 90.964844 24.253906 91.089844 23.367188 93.75 C 22.480469 96.410156 27.027344 95.082031 26.03125 92.195312 C 25.03125 89.316406 23.480469 89.757812 23.480469 87.761719 C 23.480469 85.765625 22.925781 69.027344 23.8125 65.808594 C 23.945312 65.328125 24.125 64.929688 24.328125 64.582031 C 26.625 70.605469 29.375 74.527344 30.953125 75.140625 C 32.101562 75.589844 31.96875 73.109375 31.96875 73.109375 C 31.96875 73.109375 32.816406 76.835938 33.835938 76.835938 C 34.851562 76.835938 35.699219 74.636719 35.699219 74.636719 C 35.699219 74.636719 37.226562 77.855469 38.582031 77.855469 C 39.078125 77.855469 39.390625 77.511719 39.589844 77.082031 C 39.941406 79.25 40.257812 81.527344 40.40625 83.464844 C 40.851562 89.226562 41.074219 92.761719 39.238281 92.945312 C 37.398438 93.128906 34.726562 93.6875 35.171875 95.175781 C 35.617188 96.660156 42.191406 95.730469 42.300781 93.691406 C 42.375 92.308594 42.351562 82.804688 42.324219 76.757812 C 44.597656 77.921875 48.25 79.25 52.148438 78.535156 C 54.324219 78.132812 55.917969 77.652344 57.074219 77.195312 C 57.050781 83.246094 57.027344 91.996094 57.101562 93.316406 C 57.214844 95.359375 63.785156 96.289062 64.226562 94.800781 C 64.675781 93.316406 62 92.761719 60.164062 92.574219 C 58.328125 92.386719 58.550781 88.855469 58.996094 83.09375 C 59.167969 80.847656 59.5625 78.148438 59.980469 75.691406 C 60.074219 76.171875 60.433594 77.3125 61.644531 77.175781 C 63.167969 77.007812 64.863281 73.957031 64.863281 73.957031 C 64.863281 73.957031 66.050781 75.3125 67.574219 73.957031 C 69.101562 72.597656 69.101562 69.546875 69.101562 69.546875 C 69.101562 69.546875 69.269531 71.074219 70.117188 71.074219 C 70.964844 71.074219 71.980469 70.734375 73 67.851562 C 73.136719 67.46875 73.523438 66.449219 74.03125 64.953125 C 74.472656 65.417969 74.867188 66.050781 75.109375 66.929688 C 75.996094 70.144531 75.445312 86.890625 75.445312 88.886719 C 75.445312 90.882812 73.890625 90.4375 72.890625 93.320312 C 71.894531 96.203125 76.441406 97.535156 75.554688 94.871094 C 74.667969 92.210938 75.589844 92.089844 77.035156 92.089844 C 78.472656 92.089844 75.886719 96.425781 78.546875 96.644531 C 81.207031 96.867188 78.660156 92.324219 79.988281 91.988281 C 81.320312 91.65625 81.761719 93.210938 81.984375 94.097656 C 82.207031 94.984375 84.09375 94.648438 83.425781 91.4375 C 82.757812 88.222656 78.988281 89.882812 77.660156 89.882812 Z M 77.660156 89.882812 "/>
<path style=" stroke:none;fill-rule:evenodd;fill:rgb(42.744446%,48.234558%,74.900818%);fill-opacity:1;" d="M 29.503906 66.574219 C 30.5 66.179688 31.476562 67.003906 31.792969 67.875 C 32.394531 69.53125 35.144531 69.457031 36.308594 68.621094 C 36.949219 68.15625 38.046875 68.332031 38.558594 68.910156 C 39.566406 70.042969 42.652344 71.824219 43.820312 70.03125 C 44.464844 69.042969 45.867188 68.769531 46.738281 69.65625 C 48.382812 71.328125 50.5 72.378906 52.472656 70.585938 C 52.808594 70.277344 53.175781 70.125 53.535156 70.089844 C 53.9375 69.710938 54.511719 69.527344 55.210938 69.734375 C 56.773438 70.203125 57.714844 70.464844 58.976562 69.285156 C 59.621094 68.679688 60.457031 68.605469 61.230469 68.992188 C 62.339844 69.546875 65.574219 70.339844 65.679688 68.367188 C 65.730469 67.421875 66.488281 66.421875 67.539062 66.511719 C 71.546875 66.839844 73.601562 64.105469 74.851562 60.625 C 75.019531 60.164062 75.304688 59.839844 75.648438 59.632812 C 76.753906 55.53125 77.847656 50.296875 78.140625 44.796875 C 82.792969 43.277344 86.160156 38.902344 86.160156 33.753906 C 86.160156 27.347656 80.949219 22.136719 74.542969 22.136719 C 73.796875 22.136719 73.070312 22.214844 72.359375 22.347656 C 69.964844 19.296875 66.703125 16.683594 62.316406 14.78125 C 59.59375 13.597656 56.996094 12.773438 54.519531 12.253906 C 54.714844 11.382812 55.058594 10.417969 55.644531 9.480469 C 57.460938 6.574219 61.289062 7.367188 58.828125 6.523438 C 56.371094 5.675781 52.183594 9.152344 52.183594 9.152344 C 52.183594 9.152344 50.851562 6.480469 52.046875 4.34375 C 53.25 2.207031 54.410156 3.34375 54.230469 2.40625 C 54.046875 1.464844 49.363281 2.042969 47.433594 4.210938 C 45.667969 6.199219 46.214844 9.425781 46.320312 9.960938 C 46.25 9.648438 45.890625 8.441406 44.488281 7.511719 C 42.867188 6.4375 39.941406 5.992188 39.195312 7.148438 C 38.453125 8.308594 40.328125 8.34375 41.511719 9.277344 C 42.558594 10.101562 42.550781 11.804688 42.539062 12.179688 C 36.457031 13.542969 31.570312 17.066406 27.953125 21.609375 C 26.847656 21.261719 25.671875 21.070312 24.453125 21.070312 C 18.050781 21.070312 12.839844 26.28125 12.839844 32.683594 C 12.839844 37.679688 16.011719 41.949219 20.445312 43.585938 C 20.492188 49.683594 21.464844 55.300781 22.828125 60.058594 C 23.675781 59.894531 24.554688 60.257812 24.730469 61.371094 C 24.964844 62.910156 25.277344 64.609375 26.183594 65.917969 C 27.085938 67.210938 28.140625 67.117188 29.503906 66.574219 Z M 29.503906 66.574219 "/>
<path style=" stroke:none;fill-rule:evenodd;fill:rgb(36.077881%,39.607239%,65.097046%);fill-opacity:1;" d="M 18.78125 42.8125 C 19.789062 42.671875 20.976562 43.265625 21.078125 44.578125 C 21.304688 47.496094 20.640625 51.238281 22.269531 53.839844 C 24.230469 56.980469 27.660156 56.84375 30.929688 56.476562 C 31.941406 56.359375 32.78125 57.40625 32.785156 58.332031 C 32.792969 59.453125 33.65625 60.46875 34.695312 60.835938 C 34.851562 59.402344 36.707031 58.242188 37.816406 59.621094 C 38.125 60.003906 38.449219 60.382812 38.78125 60.75 C 39.765625 61.476562 41.316406 61.5625 42.25 60.734375 C 43.105469 59.980469 44.589844 59.988281 45.167969 61.109375 C 45.722656 62.179688 47.09375 63.894531 48.382812 62.777344 C 49.203125 62.070312 50.777344 61.988281 51.304688 63.15625 C 52.492188 65.804688 55.757812 63.195312 56.640625 61.480469 C 56.792969 61.183594 56.992188 60.96875 57.207031 60.816406 C 57.574219 60.222656 58.246094 59.890625 59.109375 60.257812 C 60.367188 60.785156 62.804688 60.464844 62.707031 58.703125 C 62.617188 57.152344 64.316406 56.582031 65.503906 57.097656 C 67.945312 58.164062 67.8125 54.054688 67.722656 52.570312 C 67.660156 51.464844 68.628906 50.832031 69.582031 50.710938 C 73.863281 50.167969 76.355469 47.445312 78.011719 43.640625 C 78.621094 42.246094 80.144531 42.507812 80.921875 43.445312 C 84.070312 41.367188 86.160156 37.804688 86.160156 33.753906 C 86.160156 27.347656 80.949219 22.136719 74.542969 22.136719 C 73.796875 22.136719 73.070312 22.214844 72.359375 22.347656 C 69.964844 19.296875 66.703125 16.683594 62.316406 14.78125 C 59.59375 13.597656 56.996094 12.773438 54.519531 12.253906 C 54.714844 11.382812 55.054688 10.417969 55.644531 9.480469 C 57.460938 6.574219 61.289062 7.367188 58.828125 6.523438 C 56.371094 5.675781 52.183594 9.152344 52.183594 9.152344 C 52.183594 9.152344 50.851562 6.480469 52.046875 4.34375 C 53.25 2.207031 54.410156 3.34375 54.230469 2.40625 C 54.046875 1.464844 49.363281 2.042969 47.433594 4.214844 C 45.667969 6.199219 46.214844 9.425781 46.320312 9.960938 C 46.25 9.648438 45.890625 8.441406 44.488281 7.511719 C 42.867188 6.4375 39.945312 5.992188 39.195312 7.148438 C 38.453125 8.308594 40.328125 8.34375 41.511719 9.277344 C 42.558594 10.101562 42.550781 11.804688 42.539062 12.179688 C 36.457031 13.542969 31.570312 17.066406 27.953125 21.609375 C 26.847656 21.261719 25.675781 21.070312 24.457031 21.070312 C 18.050781 21.070312 12.839844 26.28125 12.839844 32.683594 C 12.839844 37.03125 15.238281 40.820312 18.78125 42.8125 Z M 18.78125 42.8125 "/>
<path style=" stroke:none;fill-rule:evenodd;fill:rgb(99.998474%,99.998474%,99.998474%);fill-opacity:1;" d="M 34.027344 32.683594 C 34.027344 37.972656 29.742188 42.257812 24.457031 42.257812 C 19.171875 42.257812 14.886719 37.972656 14.886719 32.683594 C 14.886719 27.402344 19.167969 23.113281 24.457031 23.113281 C 29.742188 23.113281 34.027344 27.402344 34.027344 32.683594 Z M 34.027344 32.683594 "/>
<path style=" stroke:none;fill-rule:evenodd;fill:rgb(29.411316%,29.803467%,27.842712%);fill-opacity:1;" d="M 28.558594 34.03125 C 26.613281 34.03125 25.03125 32.449219 25.03125 30.503906 C 25.03125 28.550781 26.609375 26.972656 28.558594 26.96875 C 27.402344 26.140625 25.988281 25.644531 24.457031 25.644531 C 20.566406 25.644531 17.414062 28.796875 17.414062 32.683594 C 17.414062 36.574219 20.566406 39.726562 24.457031 39.726562 C 28.34375 39.726562 31.496094 36.574219 31.496094 32.683594 C 31.496094 32.617188 31.488281 32.546875 31.488281 32.476562 C 30.851562 33.414062 29.777344 34.03125 28.558594 34.03125 Z M 28.558594 34.03125 "/>
<path style=" stroke:none;fill-rule:evenodd;fill:rgb(99.998474%,99.998474%,99.998474%);fill-opacity:1;" d="M 84.117188 33.753906 C 84.117188 39.042969 79.832031 43.324219 74.542969 43.324219 C 69.257812 43.324219 64.972656 39.039062 64.972656 33.753906 C 64.972656 28.46875 69.257812 24.183594 74.542969 24.183594 C 79.832031 24.183594 84.117188 28.46875 84.117188 33.753906 Z M 84.117188 33.753906 "/>
<path style=" stroke:none;fill-rule:evenodd;fill:rgb(29.411316%,29.803467%,27.842712%);fill-opacity:1;" d="M 78.652344 35.101562 C 76.699219 35.101562 75.117188 33.519531 75.117188 31.570312 C 75.117188 29.621094 76.699219 28.042969 78.648438 28.039062 C 77.492188 27.207031 76.078125 26.710938 74.542969 26.710938 C 70.65625 26.710938 67.503906 29.867188 67.503906 33.753906 C 67.503906 37.644531 70.65625 40.796875 74.542969 40.796875 C 78.433594 40.796875 81.585938 37.644531 81.585938 33.753906 C 81.585938 33.6875 81.578125 33.617188 81.578125 33.546875 C 80.941406 34.484375 79.867188 35.101562 78.652344 35.101562 Z M 78.652344 35.101562 "/>
<path style=" stroke:none;fill-rule:evenodd;fill:rgb(90.979004%,32.156372%,32.156372%);fill-opacity:1;" d="M 36.378906 45.507812 L 64.132812 45.507812 C 64.132812 45.507812 56.945312 61.117188 49.882812 61.117188 C 42.824219 61.117188 36.378906 45.507812 36.378906 45.507812 Z M 36.378906 45.507812 "/>
<path style=" stroke:none;fill-rule:evenodd;fill:rgb(99.998474%,99.214172%,86.273193%);fill-opacity:1;" d="M 43.9375 49.042969 C 43.9375 50.328125 44.976562 51.367188 46.261719 51.367188 C 47.539062 51.367188 48.582031 50.328125 48.582031 49.042969 L 48.582031 45.507812 L 43.9375 45.507812 Z M 43.9375 49.042969 "/>
<path style=" stroke:none;fill-rule:evenodd;fill:rgb(99.998474%,99.214172%,86.273193%);fill-opacity:1;" d="M 51.371094 49.191406 C 51.371094 50.472656 52.410156 51.511719 53.695312 51.511719 C 54.976562 51.511719 56.015625 50.472656 56.015625 49.191406 L 56.015625 45.507812 L 51.371094 45.507812 Z M 51.371094 49.191406 "/>
</g>
</svg>
