<?xml version="1.0" encoding="UTF-8"?>
<svg xmlns="http://www.w3.org/2000/svg" xmlns:xlink="http://www.w3.org/1999/xlink" width="87pt" height="97pt" viewBox="0 0 87 97" version="1.1">
<g id="surface329">
<path style=" stroke:none;fill-rule:evenodd;fill:rgb(73.724365%,66.665649%,24.705505%);fill-opacity:1;" d="M 77.660156 89.886719 C 76.328125 89.886719 77.660156 75.472656 77.660156 67.710938 C 77.660156 64.246094 76.578125 62.019531 75.378906 60.613281 C 76.574219 56.382812 77.828125 50.746094 78.140625 44.800781 C 82.792969 43.28125 86.160156 38.902344 86.160156 33.753906 C 86.160156 27.351562 80.949219 22.140625 74.546875 22.140625 C 73.800781 22.140625 73.070312 22.214844 72.363281 22.347656 C 69.96875 19.296875 66.703125 16.683594 62.320312 14.78125 C 59.59375 13.601562 56.996094 12.773438 54.519531 12.253906 C 54.714844 11.382812 55.054688 10.417969 55.644531 9.480469 C 57.464844 6.574219 61.289062 7.367188 58.828125 6.523438 C 56.367188 5.675781 52.183594 9.152344 52.183594 9.152344 C 52.183594 9.152344 50.847656 6.484375 52.050781 4.34375 C 53.25 2.210938 54.414062 3.34375 54.230469 2.40625 C 54.046875 1.464844 49.363281 2.042969 47.4375 4.210938 C 45.667969 6.199219 46.214844 9.425781 46.320312 9.960938 C 46.25 9.648438 45.890625 8.441406 44.488281 7.511719 C 42.867188 6.4375 39.941406 5.992188 39.199219 7.152344 C 38.453125 8.308594 40.328125 8.347656 41.507812 9.277344 C 42.558594 10.101562 42.554688 11.808594 42.539062 12.179688 C 36.457031 13.542969 31.570312 17.0625 27.953125 21.609375 C 26.847656 21.261719 25.671875 21.070312 24.453125 21.070312 C 18.050781 21.070312 12.839844 26.28125 12.839844 32.683594 C 12.839844 37.683594 16.011719 41.949219 20.445312 43.585938 C 20.492188 49.804688 21.5 55.523438 22.910156 60.339844 C 21.988281 61.746094 21.261719 63.75 21.261719 66.585938 C 21.261719 74.347656 22.59375 88.761719 21.261719 88.761719 C 19.929688 88.761719 16.160156 87.097656 15.496094 90.3125 C 14.828125 93.53125 16.714844 93.863281 16.9375 92.976562 C 17.160156 92.089844 17.601562 90.535156 18.933594 90.867188 C 20.261719 91.199219 17.710938 95.746094 20.375 95.523438 C 23.035156 95.300781 20.449219 90.964844 21.890625 90.964844 C 23.328125 90.964844 24.257812 91.089844 23.367188 93.75 C 22.480469 96.410156 27.027344 95.082031 26.03125 92.199219 C 25.03125 89.316406 23.476562 89.761719 23.476562 87.761719 C 23.476562 85.769531 22.921875 69.023438 23.8125 65.808594 C 23.945312 65.328125 24.125 64.929688 24.332031 64.582031 C 26.621094 70.609375 29.375 74.527344 30.949219 75.144531 C 32.101562 75.589844 31.96875 73.109375 31.96875 73.109375 C 31.96875 73.109375 32.816406 76.835938 33.835938 76.835938 C 34.851562 76.835938 35.699219 74.632812 35.699219 74.632812 C 35.699219 74.632812 37.226562 77.855469 38.582031 77.855469 C 39.078125 77.855469 39.390625 77.515625 39.589844 77.082031 C 39.941406 79.25 40.257812 81.527344 40.40625 83.46875 C 40.855469 89.226562 41.074219 92.757812 39.238281 92.945312 C 37.398438 93.132812 34.726562 93.691406 35.171875 95.175781 C 35.617188 96.660156 42.1875 95.734375 42.300781 93.691406 C 42.375 92.308594 42.347656 82.804688 42.324219 76.757812 C 44.601562 77.921875 48.246094 79.253906 52.144531 78.535156 C 54.324219 78.132812 55.914062 77.65625 57.074219 77.199219 C 57.050781 83.25 57.03125 92 57.101562 93.316406 C 57.214844 95.359375 63.785156 96.289062 64.230469 94.804688 C 64.675781 93.316406 62.003906 92.757812 60.164062 92.574219 C 58.328125 92.390625 58.550781 88.855469 58.996094 83.09375 C 59.167969 80.847656 59.5625 78.148438 59.976562 75.691406 C 60.078125 76.171875 60.433594 77.3125 61.640625 77.175781 C 63.167969 77.007812 64.863281 73.957031 64.863281 73.957031 C 64.863281 73.957031 66.050781 75.3125 67.578125 73.957031 C 69.101562 72.597656 69.101562 69.546875 69.101562 69.546875 C 69.101562 69.546875 69.273438 71.074219 70.121094 71.074219 C 70.964844 71.074219 71.984375 70.734375 73.003906 67.851562 C 73.136719 67.46875 73.523438 66.453125 74.03125 64.957031 C 74.472656 65.417969 74.867188 66.050781 75.109375 66.933594 C 75.996094 70.148438 75.445312 86.890625 75.445312 88.886719 C 75.445312 90.882812 73.890625 90.4375 72.890625 93.320312 C 71.894531 96.203125 76.441406 97.535156 75.554688 94.875 C 74.667969 92.210938 75.589844 92.089844 77.03125 92.089844 C 78.476562 92.089844 75.886719 96.425781 78.546875 96.648438 C 81.207031 96.871094 78.65625 92.324219 79.988281 91.988281 C 81.320312 91.65625 81.761719 93.210938 81.984375 94.097656 C 82.207031 94.984375 84.089844 94.652344 83.425781 91.4375 C 82.761719 88.222656 78.992188 89.886719 77.660156 89.886719 Z M 77.660156 89.886719 "/>
<path style=" stroke:none;fill-rule:evenodd;fill:rgb(84.70459%,77.645874%,28.234863%);fill-opacity:1;" d="M 29.503906 66.578125 C 30.5 66.183594 31.476562 67.003906 31.789062 67.875 C 32.394531 69.535156 35.144531 69.460938 36.308594 68.621094 C 36.949219 68.160156 38.046875 68.335938 38.558594 68.914062 C 39.570312 70.042969 42.652344 71.824219 43.820312 70.03125 C 44.464844 69.042969 45.867188 68.769531 46.738281 69.65625 C 48.382812 71.328125 50.5 72.382812 52.472656 70.585938 C 52.808594 70.28125 53.175781 70.128906 53.535156 70.089844 C 53.9375 69.710938 54.511719 69.527344 55.210938 69.734375 C 56.769531 70.203125 57.714844 70.46875 58.976562 69.285156 C 59.621094 68.683594 60.457031 68.609375 61.230469 68.996094 C 62.339844 69.550781 65.574219 70.339844 65.679688 68.371094 C 65.730469 67.421875 66.492188 66.421875 67.539062 66.511719 C 71.546875 66.84375 73.597656 64.109375 74.851562 60.625 C 75.019531 60.164062 75.308594 59.839844 75.648438 59.632812 C 76.757812 55.53125 77.847656 50.300781 78.140625 44.800781 C 82.792969 43.28125 86.160156 38.902344 86.160156 33.753906 C 86.160156 27.351562 80.949219 22.140625 74.546875 22.140625 C 73.800781 22.140625 73.070312 22.214844 72.363281 22.347656 C 69.96875 19.296875 66.703125 16.683594 62.320312 14.78125 C 59.59375 13.601562 56.996094 12.773438 54.519531 12.253906 C 54.714844 11.382812 55.054688 10.417969 55.644531 9.480469 C 57.464844 6.574219 61.289062 7.367188 58.828125 6.523438 C 56.367188 5.675781 52.183594 9.152344 52.183594 9.152344 C 52.183594 9.152344 50.847656 6.480469 52.050781 4.34375 C 53.25 2.210938 54.414062 3.34375 54.230469 2.40625 C 54.046875 1.464844 49.363281 2.042969 47.4375 4.214844 C 45.667969 6.199219 46.214844 9.425781 46.320312 9.960938 C 46.25 9.648438 45.890625 8.441406 44.488281 7.511719 C 42.867188 6.4375 39.941406 5.992188 39.199219 7.152344 C 38.453125 8.308594 40.328125 8.347656 41.507812 9.277344 C 42.558594 10.101562 42.554688 11.808594 42.535156 12.179688 C 36.457031 13.542969 31.570312 17.0625 27.953125 21.609375 C 26.847656 21.261719 25.671875 21.070312 24.453125 21.070312 C 18.050781 21.070312 12.839844 26.28125 12.839844 32.683594 C 12.839844 37.683594 16.011719 41.949219 20.445312 43.585938 C 20.492188 49.683594 21.460938 55.300781 22.828125 60.0625 C 23.675781 59.894531 24.554688 60.261719 24.726562 61.371094 C 24.964844 62.910156 25.277344 64.609375 26.1875 65.917969 C 27.085938 67.210938 28.140625 67.117188 29.503906 66.578125 Z M 29.503906 66.578125 "/>
<path style=" stroke:none;fill-rule:evenodd;fill:rgb(96.076965%,91.763306%,27.842712%);fill-opacity:1;" d="M 18.78125 42.816406 C 19.789062 42.675781 20.976562 43.265625 21.078125 44.582031 C 21.304688 47.496094 20.640625 51.238281 22.269531 53.84375 C 24.230469 56.980469 27.660156 56.84375 30.929688 56.472656 C 31.941406 56.359375 32.78125 57.40625 32.785156 58.332031 C 32.792969 59.457031 33.65625 60.46875 34.695312 60.835938 C 34.851562 59.402344 36.707031 58.242188 37.816406 59.621094 C 38.128906 60.003906 38.445312 60.382812 38.777344 60.75 C 39.765625 61.480469 41.316406 61.5625 42.25 60.734375 C 43.105469 59.980469 44.589844 59.992188 45.171875 61.113281 C 45.722656 62.179688 47.09375 63.894531 48.382812 62.78125 C 49.203125 62.070312 50.777344 61.988281 51.304688 63.15625 C 52.492188 65.804688 55.753906 63.199219 56.640625 61.480469 C 56.796875 61.1875 56.988281 60.96875 57.207031 60.820312 C 57.574219 60.226562 58.246094 59.894531 59.113281 60.257812 C 60.363281 60.785156 62.804688 60.464844 62.707031 58.703125 C 62.621094 57.152344 64.316406 56.582031 65.503906 57.097656 C 67.945312 58.164062 67.8125 54.054688 67.726562 52.570312 C 67.660156 51.46875 68.628906 50.832031 69.582031 50.714844 C 73.863281 50.171875 76.351562 47.445312 78.015625 43.640625 C 78.625 42.246094 80.144531 42.507812 80.921875 43.445312 C 84.070312 41.367188 86.160156 37.804688 86.160156 33.753906 C 86.160156 27.347656 80.949219 22.136719 74.546875 22.136719 C 73.800781 22.136719 73.070312 22.210938 72.363281 22.347656 C 69.96875 19.296875 66.703125 16.683594 62.320312 14.78125 C 59.59375 13.597656 56.996094 12.773438 54.519531 12.253906 C 54.714844 11.382812 55.054688 10.417969 55.644531 9.480469 C 57.464844 6.574219 61.289062 7.367188 58.828125 6.523438 C 56.367188 5.675781 52.183594 9.152344 52.183594 9.152344 C 52.183594 9.152344 50.847656 6.480469 52.050781 4.34375 C 53.25 2.207031 54.414062 3.34375 54.230469 2.402344 C 54.046875 1.464844 49.363281 2.042969 47.4375 4.214844 C 45.667969 6.195312 46.214844 9.425781 46.320312 9.960938 C 46.25 9.648438 45.890625 8.441406 44.492188 7.511719 C 42.867188 6.4375 39.941406 5.992188 39.199219 7.152344 C 38.453125 8.304688 40.328125 8.34375 41.507812 9.277344 C 42.558594 10.101562 42.554688 11.804688 42.539062 12.179688 C 36.457031 13.542969 31.570312 17.0625 27.953125 21.609375 C 26.847656 21.261719 25.671875 21.070312 24.453125 21.070312 C 18.050781 21.070312 12.839844 26.28125 12.839844 32.683594 C 12.839844 37.03125 15.242188 40.824219 18.78125 42.816406 Z M 18.78125 42.816406 "/>
<path style=" stroke:none;fill-rule:evenodd;fill:rgb(99.998474%,99.998474%,99.998474%);fill-opacity:1;" d="M 34.027344 32.6875 C 34.027344 37.972656 29.742188 42.257812 24.457031 42.257812 C 19.167969 42.257812 14.882812 37.972656 14.882812 32.6875 C 14.882812 27.402344 19.167969 23.113281 24.457031 23.113281 C 29.742188 23.113281 34.027344 27.402344 34.027344 32.6875 Z M 34.027344 32.6875 "/>
<path style=" stroke:none;fill-rule:evenodd;fill:rgb(29.411316%,29.803467%,27.842712%);fill-opacity:1;" d="M 28.5625 34.035156 C 26.609375 34.035156 25.03125 32.453125 25.03125 30.503906 C 25.03125 28.550781 26.609375 26.972656 28.558594 26.972656 C 27.402344 26.140625 25.988281 25.644531 24.453125 25.644531 C 20.566406 25.644531 17.414062 28.796875 17.414062 32.683594 C 17.414062 36.574219 20.566406 39.726562 24.453125 39.726562 C 28.34375 39.726562 31.496094 36.574219 31.496094 32.683594 C 31.496094 32.617188 31.488281 32.546875 31.488281 32.480469 C 30.851562 33.417969 29.777344 34.035156 28.5625 34.035156 Z M 28.5625 34.035156 "/>
<path style=" stroke:none;fill-rule:evenodd;fill:rgb(99.998474%,99.998474%,99.998474%);fill-opacity:1;" d="M 84.117188 33.753906 C 84.117188 39.039062 79.832031 43.324219 74.546875 43.324219 C 69.261719 43.324219 64.972656 39.039062 64.972656 33.753906 C 64.972656 28.46875 69.261719 24.183594 74.546875 24.183594 C 79.832031 24.183594 84.117188 28.46875 84.117188 33.753906 Z M 84.117188 33.753906 "/>
<path style=" stroke:none;fill-rule:evenodd;fill:rgb(29.411316%,29.803467%,27.842712%);fill-opacity:1;" d="M 78.652344 35.101562 C 76.703125 35.101562 75.121094 33.519531 75.121094 31.574219 C 75.121094 29.621094 76.703125 28.042969 78.648438 28.042969 C 77.492188 27.210938 76.078125 26.710938 74.546875 26.710938 C 70.65625 26.710938 67.503906 29.867188 67.503906 33.753906 C 67.503906 37.644531 70.65625 40.796875 74.546875 40.796875 C 78.433594 40.796875 81.589844 37.644531 81.589844 33.753906 C 81.589844 33.683594 81.578125 33.617188 81.578125 33.550781 C 80.941406 34.484375 79.867188 35.101562 78.652344 35.101562 Z M 78.652344 35.101562 "/>
<path style=" stroke:none;fill-rule:evenodd;fill:rgb(90.979004%,32.156372%,32.156372%);fill-opacity:1;" d="M 36.378906 45.507812 L 64.132812 45.507812 C 64.132812 45.507812 56.945312 61.121094 49.882812 61.121094 C 42.824219 61.121094 36.378906 45.507812 36.378906 45.507812 Z M 36.378906 45.507812 "/>
<path style=" stroke:none;fill-rule:evenodd;fill:rgb(99.998474%,99.214172%,86.273193%);fill-opacity:1;" d="M 43.9375 49.046875 C 43.9375 50.328125 44.976562 51.367188 46.257812 51.367188 C 47.542969 51.367188 48.582031 50.328125 48.582031 49.046875 L 48.582031 45.507812 L 43.9375 45.507812 Z M 43.9375 49.046875 "/>
<path style=" stroke:none;fill-rule:evenodd;fill:rgb(99.998474%,99.214172%,86.273193%);fill-opacity:1;" d="M 51.371094 49.191406 C 51.371094 50.476562 52.410156 51.511719 53.691406 51.511719 C 54.976562 51.511719 56.015625 50.476562 56.015625 49.191406 L 56.015625 45.507812 L 51.371094 45.507812 Z M 51.371094 49.191406 "/>
</g>
</svg>
