<?xml version="1.0" encoding="UTF-8"?>
<svg xmlns="http://www.w3.org/2000/svg" xmlns:xlink="http://www.w3.org/1999/xlink" width="94pt" height="94pt" viewBox="0 0 94 94" version="1.1">
<g id="surface385">
<path style=" stroke:none;fill-rule:evenodd;fill:rgb(99.998474%,50.195312%,50.195312%);fill-opacity:1;" d="M 12.050781 63.066406 C 11.695312 64.5 10.898438 74.71875 8.230469 74.769531 C 5.5625 74.824219 1.980469 73.203125 2.515625 71.046875 C 3.050781 68.890625 6.320312 60 9.304688 60.023438 C 12.289062 60.046875 12.050781 63.066406 12.050781 63.066406 Z M 12.050781 63.066406 "/>
<path style=" stroke:none;fill-rule:evenodd;fill:rgb(90.979004%,32.156372%,32.156372%);fill-opacity:1;" d="M 15.449219 88.703125 C 13.863281 88.703125 4.078125 56.808594 9.632812 32.753906 C 15.183594 8.695312 56.953125 5.789062 60.125 28.789062 C 63.296875 51.785156 57.21875 71.613281 60.125 73.730469 C 63.03125 75.839844 67.164062 71.464844 68.847656 77.691406 C 70.039062 82.097656 73.605469 86.152344 76.777344 83.773438 C 79.949219 81.394531 83.320312 82.925781 83.917969 86.417969 C 84.503906 89.84375 90.699219 85.179688 92.796875 87.4375 C 94.261719 89.015625 97.019531 92.683594 81.421875 92.945312 C 65.824219 93.210938 28.992188 92.878906 21.585938 92.945312 C 13.25 93.023438 15.449219 88.703125 15.449219 88.703125 Z M 15.449219 88.703125 "/>
<path style=" stroke:none;fill-rule:evenodd;fill:rgb(99.998474%,50.195312%,50.195312%);fill-opacity:1;" d="M 53.269531 89.683594 C 53.269531 89.683594 17.347656 90.800781 16.394531 88.890625 C 15.796875 87.703125 53.269531 89.683594 53.269531 89.683594 Z M 53.269531 89.683594 "/>
<path style=" stroke:none;fill-rule:evenodd;fill:rgb(99.998474%,50.195312%,50.195312%);fill-opacity:1;" d="M 54.957031 22.171875 C 57.863281 24.421875 58.921875 38.695312 58.128906 49.007812 C 57.335938 59.316406 55.335938 74.914062 58.382812 76.234375 C 61.433594 77.558594 63.019531 75.042969 63.945312 76.234375 C 64.871094 77.425781 59.980469 80.332031 55.484375 75.574219 C 50.992188 70.816406 52.265625 52.707031 52.972656 42.265625 C 53.683594 31.824219 52.050781 19.925781 54.957031 22.171875 Z M 54.957031 22.171875 "/>
<path style=" stroke:none;fill-rule:evenodd;fill:rgb(99.998474%,50.195312%,50.195312%);fill-opacity:1;" d="M 65.117188 80.714844 C 64.820312 80.117188 65.066406 77.886719 66.40625 78.433594 C 67.742188 78.980469 67.496094 83.6875 71.113281 85.273438 C 74.734375 86.859375 76.269531 84.480469 77.90625 84.480469 C 79.542969 84.480469 78.351562 86.214844 75.527344 86.859375 C 72.703125 87.503906 69.976562 86.808594 67.894531 85.074219 C 65.8125 83.339844 65.117188 80.714844 65.117188 80.714844 Z M 65.117188 80.714844 "/>
<path style=" stroke:none;fill-rule:evenodd;fill:rgb(99.998474%,99.606323%,94.116211%);fill-opacity:1;" d="M 5.917969 42.398438 L 22.175781 42.398438 C 22.175781 42.398438 20.886719 52.03125 13.484375 51.722656 C 6.078125 51.410156 5.917969 42.398438 5.917969 42.398438 Z M 5.917969 42.398438 "/>
<path style=" stroke:none;fill-rule:evenodd;fill:rgb(37.646484%,30.587769%,30.587769%);fill-opacity:1;" d="M 16.261719 43.6875 C 16.261719 45.328125 14.929688 46.660156 13.285156 46.660156 C 11.644531 46.660156 10.3125 45.328125 10.3125 43.6875 C 10.3125 42.042969 11.644531 40.710938 13.285156 40.710938 C 14.929688 40.710938 16.261719 42.042969 16.261719 43.6875 Z M 16.261719 43.6875 "/>
<path style=" stroke:none;fill-rule:evenodd;fill:rgb(99.998474%,99.998474%,99.998474%);fill-opacity:1;" d="M 12.253906 44.347656 C 12.382812 44.214844 12.460938 44.035156 12.460938 43.835938 C 12.460938 43.421875 12.128906 43.089844 11.714844 43.089844 C 11.308594 43.089844 10.972656 43.425781 10.972656 43.835938 C 10.972656 44.207031 11.25 44.511719 11.605469 44.566406 C 11.550781 44.652344 11.519531 44.75 11.519531 44.859375 C 11.519531 45.160156 11.765625 45.40625 12.066406 45.40625 C 12.367188 45.40625 12.613281 45.160156 12.613281 44.859375 C 12.613281 44.621094 12.460938 44.421875 12.253906 44.347656 Z M 12.253906 44.347656 "/>
<path style=" stroke:none;fill-rule:evenodd;fill:rgb(99.998474%,99.606323%,94.116211%);fill-opacity:1;" d="M 24.226562 42.664062 L 42.992188 42.664062 C 42.992188 42.664062 41.507812 53.78125 32.957031 53.425781 C 24.410156 53.070312 24.226562 42.664062 24.226562 42.664062 Z M 24.226562 42.664062 "/>
<path style=" stroke:none;fill-rule:evenodd;fill:rgb(37.646484%,30.587769%,30.587769%);fill-opacity:1;" d="M 36.164062 44.152344 C 36.164062 46.046875 34.628906 47.582031 32.730469 47.582031 C 30.835938 47.582031 29.300781 46.046875 29.300781 44.152344 C 29.300781 42.253906 30.835938 40.714844 32.730469 40.714844 C 34.628906 40.714844 36.164062 42.253906 36.164062 44.152344 Z M 36.164062 44.152344 "/>
<path style=" stroke:none;fill-rule:evenodd;fill:rgb(99.998474%,99.998474%,99.998474%);fill-opacity:1;" d="M 31.539062 44.914062 C 31.6875 44.757812 31.78125 44.550781 31.78125 44.320312 C 31.78125 43.847656 31.394531 43.460938 30.917969 43.460938 C 30.445312 43.460938 30.0625 43.847656 30.0625 44.320312 C 30.0625 44.753906 30.378906 45.105469 30.789062 45.167969 C 30.726562 45.265625 30.691406 45.378906 30.691406 45.503906 C 30.691406 45.851562 30.972656 46.132812 31.324219 46.132812 C 31.667969 46.132812 31.953125 45.851562 31.953125 45.503906 C 31.953125 45.230469 31.78125 45.003906 31.539062 44.914062 Z M 31.539062 44.914062 "/>
<path style=" stroke:none;fill-rule:evenodd;fill:rgb(99.998474%,50.195312%,50.195312%);fill-opacity:1;" d="M 5.695312 39.972656 C 5.273438 40.273438 5.546875 40.800781 5.546875 40.800781 C 5.546875 40.800781 4.398438 41.027344 4.371094 41.972656 C 4.34375 42.910156 5.136719 42.976562 8.871094 43.03125 C 12.609375 43.082031 22.746094 43.117188 23.738281 42.449219 C 24.734375 41.785156 18.035156 40.78125 14.0625 40.410156 C 10.03125 40.03125 6.574219 39.351562 5.695312 39.972656 Z M 5.695312 39.972656 "/>
<path style=" stroke:none;fill-rule:evenodd;fill:rgb(99.998474%,50.195312%,50.195312%);fill-opacity:1;" d="M 43.394531 39.613281 C 43.765625 40.109375 43.375 40.53125 43.375 40.53125 C 43.375 40.53125 44.683594 40.800781 44.710938 41.972656 C 44.742188 43.132812 43.835938 43.21875 39.574219 43.289062 C 35.3125 43.363281 23.75 43.425781 22.617188 42.605469 C 21.484375 41.78125 29.125 40.527344 33.660156 40.058594 C 38.261719 39.585938 43.019531 39.113281 43.394531 39.613281 Z M 43.394531 39.613281 "/>
<path style=" stroke:none;fill-rule:evenodd;fill:rgb(90.979004%,32.156372%,32.156372%);fill-opacity:1;" d="M 25.902344 41.992188 C 25.902344 41.992188 33.179688 41.84375 37.402344 41.464844 C 41.628906 41.089844 42.996094 40.671875 42.996094 40.671875 C 42.996094 40.671875 43.257812 40.878906 42.757812 41.152344 C 42.253906 41.425781 38.300781 41.949219 34.160156 41.992188 C 30.023438 42.03125 25.902344 41.992188 25.902344 41.992188 Z M 25.902344 41.992188 "/>
<path style=" stroke:none;fill-rule:evenodd;fill:rgb(90.979004%,32.156372%,32.156372%);fill-opacity:1;" d="M 20.164062 41.859375 C 20.164062 41.859375 12.136719 41.585938 9.273438 41.386719 C 6.410156 41.191406 5.917969 40.960938 5.917969 40.960938 C 5.917969 40.960938 5.71875 41.234375 6.410156 41.410156 C 7.097656 41.589844 9.945312 41.777344 13.027344 41.859375 C 16.109375 41.945312 20.164062 41.859375 20.164062 41.859375 Z M 20.164062 41.859375 "/>
<path style=" stroke:none;fill-rule:evenodd;fill:rgb(99.998474%,50.195312%,50.195312%);fill-opacity:1;" d="M 43.386719 61.300781 C 42.90625 62.695312 38.023438 71.707031 40.238281 73.203125 C 42.449219 74.695312 46.335938 75.28125 47.058594 73.179688 C 47.78125 71.078125 49.863281 61.835938 47.34375 60.234375 C 44.824219 58.636719 43.386719 61.300781 43.386719 61.300781 Z M 43.386719 61.300781 "/>
<path style=" stroke:none;fill-rule:evenodd;fill:rgb(93.72406%,51.763916%,51.763916%);fill-opacity:1;" d="M 35.804688 60.585938 C 34.765625 60.539062 33.800781 60 34.347656 58.882812 C 34.890625 57.765625 32.890625 56.335938 31.953125 57.183594 C 31.007812 58.035156 30.03125 58.832031 29.441406 57.664062 C 28.847656 56.496094 27.082031 56.019531 25.988281 57.160156 C 25.582031 57.582031 25.117188 57.804688 24.667969 57.867188 L 24.667969 58.761719 C 24.667969 59.304688 24.230469 59.742188 23.6875 59.742188 C 23.148438 59.742188 22.710938 59.304688 22.710938 58.761719 L 22.710938 56.691406 C 22.574219 56.542969 22.390625 56.445312 22.175781 56.394531 L 22.175781 58.761719 C 22.175781 59.304688 21.738281 59.742188 21.195312 59.742188 C 20.65625 59.742188 20.21875 59.304688 20.21875 58.761719 L 20.21875 56.828125 C 19.949219 57.003906 19.722656 57.21875 19.574219 57.464844 C 18.929688 58.527344 17.808594 58.125 17.25 57.257812 C 16.695312 56.390625 13.871094 57.375 14.015625 58.535156 C 14.164062 59.695312 13.511719 60.90625 12 60.339844 C 10.488281 59.777344 10.074219 63.378906 11.867188 63.214844 C 13.664062 63.046875 14.097656 64.359375 13.625 64.933594 C 13.152344 65.507812 15.34375 67.492188 16.417969 65.753906 C 17.488281 64.015625 19.050781 65.640625 18.957031 66.621094 C 18.863281 67.601562 21.851562 67.34375 22.171875 65.769531 C 22.492188 64.195312 24.570312 65.382812 24.632812 66.179688 C 24.699219 66.976562 27.804688 67.367188 28.121094 65.890625 C 28.4375 64.417969 30.347656 64.902344 30.554688 65.855469 C 30.757812 66.804688 33.238281 66.773438 33.289062 65.730469 C 33.335938 64.691406 33.144531 63.441406 34.214844 63.886719 C 35.289062 64.332031 36.785156 64.105469 36.96875 63.316406 C 37.15625 62.535156 36.847656 60.632812 35.804688 60.585938 Z M 35.804688 60.585938 "/>
<path style=" stroke:none;fill-rule:evenodd;fill:rgb(99.998474%,99.606323%,94.116211%);fill-opacity:1;" d="M 21.195312 59.738281 C 21.738281 59.738281 22.175781 59.304688 22.175781 58.761719 L 22.175781 56.390625 C 21.59375 56.25 20.808594 56.445312 20.222656 56.828125 L 20.222656 58.761719 C 20.222656 59.304688 20.65625 59.738281 21.195312 59.738281 Z M 21.195312 59.738281 "/>
<path style=" stroke:none;fill-rule:evenodd;fill:rgb(99.998474%,99.606323%,94.116211%);fill-opacity:1;" d="M 23.6875 59.738281 C 24.230469 59.738281 24.667969 59.304688 24.667969 58.761719 L 24.667969 57.863281 C 23.90625 57.960938 23.1875 57.585938 22.875 56.917969 C 22.832031 56.828125 22.773438 56.753906 22.714844 56.691406 L 22.714844 58.761719 C 22.714844 59.304688 23.152344 59.738281 23.6875 59.738281 Z M 23.6875 59.738281 "/>
</g>
</svg>
