<?xml version="1.0" encoding="UTF-8"?>
<svg xmlns="http://www.w3.org/2000/svg" xmlns:xlink="http://www.w3.org/1999/xlink" width="94pt" height="94pt" viewBox="0 0 94 94" version="1.1">
<g id="surface392">
<path style=" stroke:none;fill-rule:evenodd;fill:rgb(11.372375%,59.999084%,1.568604%);fill-opacity:1;" d="M 12.097656 63.261719 C 11.738281 64.699219 10.9375 74.964844 8.257812 75.015625 C 5.578125 75.070312 1.980469 73.445312 2.515625 71.28125 C 3.054688 69.113281 6.339844 60.179688 9.339844 60.207031 C 12.332031 60.230469 12.097656 63.261719 12.097656 63.261719 Z M 12.097656 63.261719 "/>
<path style=" stroke:none;fill-rule:evenodd;fill:rgb(5.882263%,40.783691%,0%);fill-opacity:1;" d="M 15.09375 88.875 C 13.503906 88.875 3.679688 56.84375 9.253906 32.679688 C 14.832031 8.519531 56.78125 5.597656 59.964844 28.695312 C 63.152344 51.796875 57.046875 71.710938 59.964844 73.832031 C 62.886719 75.957031 67.035156 71.5625 68.726562 77.816406 C 69.921875 82.238281 73.507812 86.3125 76.691406 83.921875 C 79.875 81.53125 83.257812 83.074219 83.859375 86.578125 C 84.449219 90.019531 90.671875 85.335938 92.777344 87.605469 C 94.25 89.191406 97.019531 92.871094 81.355469 93.136719 C 65.691406 93.402344 28.699219 93.066406 21.261719 93.132812 C 12.886719 93.210938 15.09375 88.875 15.09375 88.875 Z M 15.09375 88.875 "/>
<path style=" stroke:none;fill-rule:evenodd;fill:rgb(67.842102%,66.273499%,10.195923%);fill-opacity:1;" d="M 53.492188 89.996094 C 53.492188 89.996094 17.414062 91.117188 16.457031 89.199219 C 15.859375 88.003906 53.492188 89.996094 53.492188 89.996094 Z M 53.492188 89.996094 "/>
<path style=" stroke:none;fill-rule:evenodd;fill:rgb(9.411621%,49.803162%,1.176453%);fill-opacity:1;" d="M 55.183594 22.191406 C 58.105469 24.449219 59.167969 38.785156 58.371094 49.140625 C 57.574219 59.496094 55.566406 75.160156 58.628906 76.488281 C 61.691406 77.816406 63.285156 75.292969 64.210938 76.488281 C 65.140625 77.683594 60.230469 80.605469 55.71875 75.824219 C 51.203125 71.046875 52.484375 52.859375 53.195312 42.371094 C 53.90625 31.882812 52.265625 19.933594 55.183594 22.191406 Z M 55.183594 22.191406 "/>
<path style=" stroke:none;fill-rule:evenodd;fill:rgb(9.411621%,49.803162%,1.176453%);fill-opacity:1;" d="M 65.390625 80.984375 C 65.09375 80.386719 65.339844 78.148438 66.683594 78.695312 C 68.027344 79.242188 67.78125 83.972656 71.414062 85.5625 C 75.046875 87.160156 76.59375 84.769531 78.234375 84.769531 C 79.878906 84.769531 78.683594 86.511719 75.84375 87.160156 C 73.007812 87.804688 70.269531 87.109375 68.179688 85.367188 C 66.089844 83.625 65.390625 80.984375 65.390625 80.984375 Z M 65.390625 80.984375 "/>
<path style=" stroke:none;fill-rule:evenodd;fill:rgb(99.998474%,99.606323%,94.116211%);fill-opacity:1;" d="M 5.933594 42.503906 L 22.261719 42.503906 C 22.261719 42.503906 20.96875 52.175781 13.53125 51.867188 C 6.097656 51.558594 5.933594 42.503906 5.933594 42.503906 Z M 5.933594 42.503906 "/>
<path style=" stroke:none;fill-rule:evenodd;fill:rgb(37.646484%,30.587769%,30.587769%);fill-opacity:1;" d="M 16.324219 43.796875 C 16.324219 45.449219 14.984375 46.785156 13.335938 46.785156 C 11.6875 46.785156 10.347656 45.449219 10.347656 43.796875 C 10.347656 42.148438 11.6875 40.8125 13.335938 40.8125 C 14.984375 40.8125 16.324219 42.148438 16.324219 43.796875 Z M 16.324219 43.796875 "/>
<path style=" stroke:none;fill-rule:evenodd;fill:rgb(99.998474%,99.998474%,99.998474%);fill-opacity:1;" d="M 12.300781 44.460938 C 12.425781 44.328125 12.503906 44.148438 12.503906 43.949219 C 12.503906 43.535156 12.171875 43.199219 11.757812 43.199219 C 11.347656 43.199219 11.011719 43.535156 11.011719 43.949219 C 11.011719 44.320312 11.289062 44.628906 11.644531 44.683594 C 11.59375 44.765625 11.558594 44.867188 11.558594 44.976562 C 11.558594 45.277344 11.808594 45.523438 12.109375 45.523438 C 12.414062 45.523438 12.660156 45.277344 12.660156 44.976562 C 12.660156 44.738281 12.507812 44.539062 12.300781 44.460938 Z M 12.300781 44.460938 "/>
<path style=" stroke:none;fill-rule:evenodd;fill:rgb(99.998474%,99.606323%,94.116211%);fill-opacity:1;" d="M 24.320312 42.769531 L 43.171875 42.769531 C 43.171875 42.769531 41.675781 53.9375 33.09375 53.578125 C 24.507812 53.222656 24.320312 42.769531 24.320312 42.769531 Z M 24.320312 42.769531 "/>
<path style=" stroke:none;fill-rule:evenodd;fill:rgb(37.646484%,30.587769%,30.587769%);fill-opacity:1;" d="M 36.3125 44.261719 C 36.3125 46.167969 34.769531 47.710938 32.863281 47.710938 C 30.960938 47.710938 29.417969 46.167969 29.417969 44.261719 C 29.417969 42.359375 30.960938 40.816406 32.863281 40.816406 C 34.769531 40.816406 36.3125 42.359375 36.3125 44.261719 Z M 36.3125 44.261719 "/>
<path style=" stroke:none;fill-rule:evenodd;fill:rgb(99.998474%,99.998474%,99.998474%);fill-opacity:1;" d="M 31.667969 45.03125 C 31.816406 44.875 31.910156 44.667969 31.910156 44.4375 C 31.910156 43.960938 31.519531 43.574219 31.046875 43.574219 C 30.570312 43.574219 30.183594 43.960938 30.183594 44.4375 C 30.183594 44.867188 30.5 45.222656 30.914062 45.285156 C 30.851562 45.382812 30.816406 45.5 30.816406 45.621094 C 30.816406 45.972656 31.097656 46.253906 31.449219 46.253906 C 31.796875 46.253906 32.082031 45.972656 32.082031 45.621094 C 32.082031 45.351562 31.910156 45.121094 31.667969 45.03125 Z M 31.667969 45.03125 "/>
<path style=" stroke:none;fill-rule:evenodd;fill:rgb(9.411621%,49.803162%,1.176453%);fill-opacity:1;" d="M 5.710938 40.070312 C 5.285156 40.371094 5.5625 40.902344 5.5625 40.902344 C 5.5625 40.902344 4.410156 41.128906 4.378906 42.074219 C 4.351562 43.019531 5.152344 43.089844 8.902344 43.140625 C 12.65625 43.191406 22.835938 43.226562 23.832031 42.558594 C 24.832031 41.890625 18.105469 40.878906 14.113281 40.507812 C 10.066406 40.128906 6.597656 39.445312 5.710938 40.070312 Z M 5.710938 40.070312 "/>
<path style=" stroke:none;fill-rule:evenodd;fill:rgb(9.411621%,49.803162%,1.176453%);fill-opacity:1;" d="M 43.570312 39.707031 C 43.949219 40.207031 43.554688 40.628906 43.554688 40.628906 C 43.554688 40.628906 44.867188 40.902344 44.898438 42.074219 C 44.929688 43.246094 44.015625 43.328125 39.738281 43.402344 C 35.457031 43.472656 23.84375 43.535156 22.707031 42.710938 C 21.570312 41.886719 29.242188 40.625 33.800781 40.15625 C 38.417969 39.679688 43.199219 39.207031 43.570312 39.707031 Z M 43.570312 39.707031 "/>
<path style=" stroke:none;fill-rule:evenodd;fill:rgb(11.372375%,59.999084%,1.568604%);fill-opacity:1;" d="M 26.007812 42.09375 C 26.007812 42.09375 33.316406 41.945312 37.558594 41.570312 C 41.800781 41.1875 43.175781 40.773438 43.175781 40.773438 C 43.175781 40.773438 43.4375 40.980469 42.933594 41.253906 C 42.429688 41.527344 38.460938 42.054688 34.300781 42.09375 C 30.144531 42.136719 26.007812 42.09375 26.007812 42.09375 Z M 26.007812 42.09375 "/>
<path style=" stroke:none;fill-rule:evenodd;fill:rgb(11.372375%,59.999084%,1.568604%);fill-opacity:1;" d="M 20.242188 41.964844 C 20.242188 41.964844 12.179688 41.691406 9.304688 41.492188 C 6.429688 41.292969 5.933594 41.0625 5.933594 41.0625 C 5.933594 41.0625 5.734375 41.335938 6.429688 41.511719 C 7.121094 41.691406 9.980469 41.878906 13.078125 41.964844 C 16.171875 42.050781 20.242188 41.964844 20.242188 41.964844 Z M 20.242188 41.964844 "/>
<path style=" stroke:none;fill-rule:evenodd;fill:rgb(11.372375%,59.999084%,1.568604%);fill-opacity:1;" d="M 43.566406 61.488281 C 43.082031 62.890625 38.179688 71.941406 40.402344 73.441406 C 42.625 74.945312 46.527344 75.53125 47.253906 73.421875 C 47.980469 71.308594 50.070312 62.027344 47.539062 60.417969 C 45.011719 58.8125 43.566406 61.488281 43.566406 61.488281 Z M 43.566406 61.488281 "/>
<path style=" stroke:none;fill-rule:evenodd;fill:rgb(93.72406%,51.763916%,51.763916%);fill-opacity:1;" d="M 35.953125 60.773438 C 34.90625 60.722656 33.9375 60.179688 34.488281 59.058594 C 35.035156 57.9375 33.027344 56.5 32.082031 57.355469 C 31.136719 58.207031 30.152344 59.011719 29.558594 57.839844 C 28.964844 56.664062 27.191406 56.183594 26.09375 57.332031 C 25.683594 57.757812 25.21875 57.980469 24.765625 58.039062 L 24.765625 58.9375 C 24.765625 59.480469 24.324219 59.921875 23.785156 59.921875 C 23.242188 59.921875 22.800781 59.480469 22.800781 58.9375 L 22.800781 56.855469 C 22.664062 56.707031 22.476562 56.609375 22.261719 56.558594 L 22.261719 58.9375 C 22.261719 59.480469 21.824219 59.921875 21.28125 59.921875 C 20.738281 59.921875 20.296875 59.480469 20.296875 58.9375 L 20.296875 56.996094 C 20.027344 57.175781 19.796875 57.390625 19.652344 57.632812 C 19.003906 58.703125 17.875 58.300781 17.316406 57.429688 C 16.761719 56.554688 13.925781 57.542969 14.070312 58.710938 C 14.214844 59.878906 13.5625 61.09375 12.042969 60.527344 C 10.523438 59.957031 10.109375 63.578125 11.910156 63.410156 C 13.714844 63.246094 14.152344 64.558594 13.675781 65.136719 C 13.199219 65.710938 15.402344 67.707031 16.480469 65.960938 C 17.554688 64.214844 19.125 65.847656 19.03125 66.832031 C 18.9375 67.816406 21.9375 67.554688 22.257812 65.976562 C 22.578125 64.394531 24.667969 65.589844 24.730469 66.386719 C 24.796875 67.1875 27.917969 67.582031 28.234375 66.097656 C 28.550781 64.617188 30.46875 65.105469 30.675781 66.0625 C 30.882812 67.019531 33.375 66.980469 33.421875 65.9375 C 33.472656 64.894531 33.277344 63.640625 34.355469 64.089844 C 35.433594 64.535156 36.9375 64.304688 37.121094 63.515625 C 37.308594 62.726562 36.996094 60.820312 35.953125 60.773438 Z M 35.953125 60.773438 "/>
<path style=" stroke:none;fill-rule:evenodd;fill:rgb(99.998474%,99.606323%,94.116211%);fill-opacity:1;" d="M 21.28125 59.921875 C 21.824219 59.921875 22.261719 59.480469 22.261719 58.9375 L 22.261719 56.558594 C 21.679688 56.417969 20.890625 56.609375 20.300781 56.996094 L 20.300781 58.9375 C 20.300781 59.480469 20.738281 59.921875 21.28125 59.921875 Z M 21.28125 59.921875 "/>
<path style=" stroke:none;fill-rule:evenodd;fill:rgb(99.998474%,99.606323%,94.116211%);fill-opacity:1;" d="M 23.785156 59.921875 C 24.324219 59.921875 24.765625 59.480469 24.765625 58.9375 L 24.765625 58.039062 C 24 58.136719 23.28125 57.761719 22.964844 57.089844 C 22.921875 57 22.867188 56.925781 22.804688 56.855469 L 22.804688 58.9375 C 22.804688 59.480469 23.242188 59.921875 23.785156 59.921875 Z M 23.785156 59.921875 "/>
</g>
</svg>
