<?xml version="1.0" encoding="UTF-8"?>
<svg xmlns="http://www.w3.org/2000/svg" xmlns:xlink="http://www.w3.org/1999/xlink" width="83pt" height="100pt" viewBox="0 0 83 100" version="1.1">
<defs>
<clipPath id="clip1">
  <path d="M 17 0 L 83 0 L 83 100 L 17 100 Z M 17 0 "/>
</clipPath>
<clipPath id="clip2">
  <path d="M 17 0 L 83 0 L 83 100 L 17 100 Z M 17 0 "/>
</clipPath>
<clipPath id="clip3">
  <path d="M 17 0 L 83 0 L 83 100 L 17 100 Z M 17 0 "/>
</clipPath>
<clipPath id="clip4">
  <path d="M 17 0 L 83 0 L 83 100 L 17 100 Z M 17 0 "/>
</clipPath>
<clipPath id="clip5">
  <path d="M 17 0 L 83 0 L 83 100 L 17 100 Z M 17 0 "/>
</clipPath>
</defs>
<g id="surface175">
<path style=" stroke:none;fill-rule:evenodd;fill:rgb(87.841797%,78.038025%,58.430481%);fill-opacity:1;" d="M 36.1875 92.046875 C 34.539062 96.03125 29.972656 97.921875 25.988281 96.273438 C 22.007812 94.621094 20.113281 90.058594 21.765625 86.074219 C 23.414062 82.089844 37.480469 57.265625 41.460938 58.917969 C 45.445312 60.566406 37.835938 88.066406 36.1875 92.046875 Z M 36.1875 92.046875 "/>
<g clip-path="url(#clip1)" clip-rule="nonzero">
<path style="fill:none;stroke-width:6.339279;stroke-linecap:butt;stroke-linejoin:miter;stroke:rgb(99.998474%,99.998474%,99.998474%);stroke-opacity:1;stroke-miterlimit:10;" d="M 110.1875 105.046875 C 108.539062 109.03125 103.972656 110.921875 99.988281 109.273438 C 96.007812 107.621094 94.113281 103.058594 95.765625 99.074219 C 97.414062 95.089844 111.480469 70.265625 115.460938 71.917969 C 119.445312 73.566406 111.835938 101.066406 110.1875 105.046875 Z M 110.1875 105.046875 " transform="matrix(1,0,0,1,-74,-13)"/>
</g>
<path style=" stroke:none;fill-rule:evenodd;fill:rgb(65.881348%,57.646179%,42.744446%);fill-opacity:1;" d="M 40.328125 77.429688 C 42.191406 69.105469 43.453125 60.414062 41.222656 59.492188 C 38.996094 58.570312 33.742188 65.601562 29.171875 72.808594 Z M 40.328125 77.429688 "/>
<g clip-path="url(#clip2)" clip-rule="nonzero">
<path style="fill:none;stroke-width:6.339279;stroke-linecap:butt;stroke-linejoin:miter;stroke:rgb(99.998474%,99.998474%,99.998474%);stroke-opacity:1;stroke-miterlimit:10;" d="M 114.328125 90.429688 C 116.191406 82.105469 117.453125 73.414062 115.222656 72.492188 C 112.996094 71.570312 107.742188 78.601562 103.171875 85.808594 Z M 114.328125 90.429688 " transform="matrix(1,0,0,1,-74,-13)"/>
</g>
<path style=" stroke:none;fill-rule:evenodd;fill:rgb(64.312744%,0%,79.998779%);fill-opacity:1;" d="M 77.195312 28.976562 C 77.210938 28.945312 77.21875 28.914062 77.230469 28.882812 L 77.492188 28.253906 C 77.601562 27.992188 77.675781 27.726562 77.726562 27.457031 C 80.148438 19.082031 74.695312 9.484375 64.894531 5.421875 C 55.074219 1.355469 44.410156 4.308594 40.214844 11.972656 C 40.074219 12.1875 39.949219 12.417969 39.847656 12.660156 L 39.6875 13.046875 C 39.640625 13.15625 39.585938 13.265625 39.539062 13.378906 C 39.492188 13.492188 39.453125 13.605469 39.410156 13.71875 L 20.097656 60.34375 C 19.289062 62.296875 20.183594 64.519531 22.09375 65.3125 L 52.816406 78.039062 C 54.726562 78.828125 56.933594 77.886719 57.742188 75.933594 L 77.15625 29.066406 C 77.167969 29.039062 77.183594 29.007812 77.195312 28.976562 Z M 77.195312 28.976562 "/>
<g clip-path="url(#clip3)" clip-rule="nonzero">
<path style="fill:none;stroke-width:6.339279;stroke-linecap:butt;stroke-linejoin:miter;stroke:rgb(99.998474%,99.998474%,99.998474%);stroke-opacity:1;stroke-miterlimit:10;" d="M 151.195312 41.976562 C 151.210938 41.945312 151.21875 41.914062 151.230469 41.882812 L 151.492188 41.253906 C 151.601562 40.992188 151.675781 40.726562 151.726562 40.457031 C 154.148438 32.082031 148.695312 22.484375 138.894531 18.421875 C 129.074219 14.355469 118.410156 17.308594 114.214844 24.972656 C 114.074219 25.1875 113.949219 25.417969 113.847656 25.660156 L 113.6875 26.046875 C 113.640625 26.15625 113.585938 26.265625 113.539062 26.378906 C 113.492188 26.492188 113.453125 26.605469 113.410156 26.71875 L 94.097656 73.34375 C 93.289062 75.296875 94.183594 77.519531 96.09375 78.3125 L 126.816406 91.039062 C 128.726562 91.828125 130.933594 90.886719 131.742188 88.933594 L 151.15625 42.066406 C 151.167969 42.039062 151.183594 42.007812 151.195312 41.976562 Z M 151.195312 41.976562 " transform="matrix(1,0,0,1,-74,-13)"/>
</g>
<path style=" stroke:none;fill-rule:evenodd;fill:rgb(44.7052%,2.352905%,54.901123%);fill-opacity:1;" d="M 77.230469 28.882812 L 77.492188 28.253906 C 77.601562 27.992188 77.675781 27.726562 77.726562 27.457031 C 78.507812 24.753906 78.464844 21.917969 77.722656 19.183594 C 76.929688 22.648438 75.84375 26.09375 74.4375 29.484375 C 65.96875 49.929688 48.128906 63.652344 27.957031 67.738281 L 52.816406 78.039062 C 54.730469 78.828125 56.933594 77.886719 57.742188 75.933594 L 77.15625 29.070312 C 77.167969 29.039062 77.183594 29.007812 77.199219 28.976562 C 77.210938 28.945312 77.21875 28.914062 77.230469 28.882812 Z M 77.230469 28.882812 "/>
<g clip-path="url(#clip4)" clip-rule="nonzero">
<path style="fill:none;stroke-width:6.339279;stroke-linecap:butt;stroke-linejoin:miter;stroke:rgb(99.998474%,99.998474%,99.998474%);stroke-opacity:1;stroke-miterlimit:10;" d="M 151.230469 41.882812 L 151.492188 41.253906 C 151.601562 40.992188 151.675781 40.726562 151.726562 40.457031 C 152.507812 37.753906 152.464844 34.917969 151.722656 32.183594 C 150.929688 35.648438 149.84375 39.09375 148.4375 42.484375 C 139.96875 62.929688 122.128906 76.652344 101.957031 80.738281 L 126.816406 91.039062 C 128.730469 91.828125 130.933594 90.886719 131.742188 88.933594 L 151.15625 42.070312 C 151.167969 42.039062 151.183594 42.007812 151.199219 41.976562 C 151.210938 41.945312 151.21875 41.914062 151.230469 41.882812 Z M 151.230469 41.882812 " transform="matrix(1,0,0,1,-74,-13)"/>
</g>
<path style=" stroke:none;fill-rule:evenodd;fill:rgb(80.39093%,0%,99.998474%);fill-opacity:1;" d="M 26.765625 61.832031 L 44.609375 18.753906 C 44.648438 18.652344 44.6875 18.546875 44.730469 18.441406 C 44.773438 18.335938 44.820312 18.238281 44.867188 18.136719 L 45.011719 17.777344 C 45.105469 17.550781 45.21875 17.339844 45.34375 17.140625 C 49.109375 10.007812 57.945312 6.863281 65.777344 10.109375 C 67.097656 10.652344 68.304688 11.351562 69.398438 12.164062 C 67.683594 9.914062 65.355469 8.058594 62.527344 6.886719 C 54.695312 3.640625 45.859375 6.792969 42.09375 13.917969 C 41.96875 14.117188 41.859375 14.332031 41.765625 14.558594 L 41.617188 14.914062 C 41.570312 15.015625 41.523438 15.117188 41.480469 15.222656 C 41.4375 15.324219 41.398438 15.429688 41.359375 15.535156 L 23.515625 58.613281 C 22.769531 60.417969 23.398438 62.394531 24.921875 63.023438 L 26.464844 63.664062 C 26.421875 63.074219 26.511719 62.445312 26.765625 61.832031 Z M 26.765625 61.832031 "/>
<g clip-path="url(#clip5)" clip-rule="nonzero">
<path style="fill:none;stroke-width:6.339279;stroke-linecap:butt;stroke-linejoin:miter;stroke:rgb(99.998474%,99.998474%,99.998474%);stroke-opacity:1;stroke-miterlimit:10;" d="M 100.765625 74.832031 L 118.609375 31.753906 C 118.648438 31.652344 118.6875 31.546875 118.730469 31.441406 C 118.773438 31.335938 118.820312 31.238281 118.867188 31.136719 L 119.011719 30.777344 C 119.105469 30.550781 119.21875 30.339844 119.34375 30.140625 C 123.109375 23.007812 131.945312 19.863281 139.777344 23.109375 C 141.097656 23.652344 142.304688 24.351562 143.398438 25.164062 C 141.683594 22.914062 139.355469 21.058594 136.527344 19.886719 C 128.695312 16.640625 119.859375 19.792969 116.09375 26.917969 C 115.96875 27.117188 115.859375 27.332031 115.765625 27.558594 L 115.617188 27.914062 C 115.570312 28.015625 115.523438 28.117188 115.480469 28.222656 C 115.4375 28.324219 115.398438 28.429688 115.359375 28.535156 L 97.515625 71.613281 C 96.769531 73.417969 97.398438 75.394531 98.921875 76.023438 L 100.464844 76.664062 C 100.421875 76.074219 100.511719 75.445312 100.765625 74.832031 Z M 100.765625 74.832031 " transform="matrix(1,0,0,1,-74,-13)"/>
</g>
<path style=" stroke:none;fill-rule:evenodd;fill:rgb(87.841797%,78.038025%,58.430481%);fill-opacity:1;" d="M 36.1875 92.046875 C 34.539062 96.03125 29.972656 97.921875 25.988281 96.273438 C 22.007812 94.621094 20.113281 90.058594 21.765625 86.074219 C 23.414062 82.089844 37.480469 57.265625 41.460938 58.917969 C 45.445312 60.566406 37.835938 88.066406 36.1875 92.046875 Z M 36.1875 92.046875 "/>
<path style=" stroke:none;fill-rule:evenodd;fill:rgb(65.881348%,57.646179%,42.744446%);fill-opacity:1;" d="M 40.328125 77.429688 C 42.191406 69.105469 43.453125 60.414062 41.222656 59.492188 C 38.996094 58.570312 33.742188 65.601562 29.171875 72.808594 Z M 40.328125 77.429688 "/>
<path style=" stroke:none;fill-rule:evenodd;fill:rgb(64.312744%,0%,79.998779%);fill-opacity:1;" d="M 77.195312 28.976562 C 77.210938 28.945312 77.21875 28.914062 77.230469 28.882812 L 77.492188 28.253906 C 77.601562 27.992188 77.675781 27.726562 77.726562 27.457031 C 80.148438 19.082031 74.695312 9.484375 64.894531 5.421875 C 55.074219 1.355469 44.410156 4.308594 40.214844 11.972656 C 40.074219 12.1875 39.949219 12.417969 39.847656 12.660156 L 39.6875 13.046875 C 39.640625 13.15625 39.585938 13.265625 39.539062 13.378906 C 39.492188 13.492188 39.453125 13.605469 39.410156 13.71875 L 20.097656 60.34375 C 19.289062 62.296875 20.183594 64.519531 22.09375 65.3125 L 52.816406 78.039062 C 54.726562 78.828125 56.933594 77.886719 57.742188 75.933594 L 77.15625 29.066406 C 77.167969 29.039062 77.183594 29.007812 77.195312 28.976562 Z M 77.195312 28.976562 "/>
<path style=" stroke:none;fill-rule:evenodd;fill:rgb(44.7052%,2.352905%,54.901123%);fill-opacity:1;" d="M 77.230469 28.882812 L 77.492188 28.253906 C 77.601562 27.992188 77.675781 27.726562 77.726562 27.457031 C 78.507812 24.753906 78.464844 21.917969 77.722656 19.183594 C 76.929688 22.648438 75.84375 26.09375 74.4375 29.484375 C 65.96875 49.929688 48.128906 63.652344 27.957031 67.738281 L 52.816406 78.039062 C 54.730469 78.828125 56.933594 77.886719 57.742188 75.933594 L 77.15625 29.070312 C 77.167969 29.039062 77.183594 29.007812 77.199219 28.976562 C 77.210938 28.945312 77.21875 28.914062 77.230469 28.882812 Z M 77.230469 28.882812 "/>
<path style=" stroke:none;fill-rule:evenodd;fill:rgb(80.39093%,0%,99.998474%);fill-opacity:1;" d="M 26.765625 61.832031 L 44.609375 18.753906 C 44.648438 18.652344 44.6875 18.546875 44.730469 18.441406 C 44.773438 18.335938 44.820312 18.238281 44.867188 18.136719 L 45.011719 17.777344 C 45.105469 17.550781 45.21875 17.339844 45.34375 17.140625 C 49.109375 10.007812 57.945312 6.863281 65.777344 10.109375 C 67.097656 10.652344 68.304688 11.351562 69.398438 12.164062 C 67.683594 9.914062 65.355469 8.058594 62.527344 6.886719 C 54.695312 3.640625 45.859375 6.792969 42.09375 13.917969 C 41.96875 14.117188 41.859375 14.332031 41.765625 14.558594 L 41.617188 14.914062 C 41.570312 15.015625 41.523438 15.117188 41.480469 15.222656 C 41.4375 15.324219 41.398438 15.429688 41.359375 15.535156 L 23.515625 58.613281 C 22.769531 60.417969 23.398438 62.394531 24.921875 63.023438 L 26.464844 63.664062 C 26.421875 63.074219 26.511719 62.445312 26.765625 61.832031 Z M 26.765625 61.832031 "/>
</g>
</svg>
